<svg width="20" height="18" viewBox="0 0 20 18" fill="none" xmlns="http://www.w3.org/2000/svg">
<path d="M11.1719 13.1992H10H8.82812L5.3125 17.999C6.74531 17.999 7.7627 17.7834 8.5798 17.6099C9.13598 17.4922 9.56801 17.4333 10 17.4333C10.432 17.4333 10.864 17.4921 11.4202 17.6099C12.2373 17.7834 13.2547 17.999 14.6875 17.999L11.1719 13.1992Z" fill="#FFBB99"/>
<path d="M14.6875 17.999L11.1719 13.1992H10V17.4333C10.432 17.4333 10.864 17.4922 11.4202 17.61C12.2373 17.7834 13.2547 17.999 14.6875 17.999Z" fill="#FF9680"/>
<path d="M1.75781 7.19965C1.43395 7.19965 1.17188 6.9313 1.17188 6.59968V0.599971C1.17188 0.268347 1.43395 0 1.75781 0C2.08168 0 2.34375 0.268347 2.34375 0.599971V6.59968C2.34375 6.9313 2.08168 7.19965 1.75781 7.19965Z" fill="#FFBB99"/>
<path d="M18.2422 7.19965C17.9183 7.19965 17.6562 6.9313 17.6562 6.59968V0.599971C17.6562 0.268347 17.9183 0 18.2422 0C18.5661 0 18.8281 0.268347 18.8281 0.599971V6.59968C18.8281 6.9313 18.5661 7.19965 18.2422 7.19965Z" fill="#FF9680"/>
<path d="M5.3125 18.0001C2.0109 18.0001 0 15.9817 0 12.6004C0 9.71245 1.16043 6.52393 1.20965 6.38918C1.26801 6.23038 1.38934 6.10383 1.54383 6.04231C1.69945 5.97964 1.87227 5.98784 2.01992 6.06399C2.31973 6.21807 9.41406 9.87473 9.41406 13.8003C9.41406 17.1224 6.73156 18.0001 5.3125 18.0001Z" fill="#FFD9B3"/>
<path d="M14.6875 17.9992C13.2684 17.9992 10.5859 17.1215 10.5859 13.7994C10.5859 9.87375 17.6803 6.21713 17.9801 6.06302C18.1289 5.98686 18.3005 5.97866 18.4562 6.04134C18.6107 6.10345 18.732 6.22941 18.7904 6.3888C18.8396 6.52295 20 9.7156 20 12.5994C20 15.9807 17.9891 17.9992 14.6875 17.9992Z" fill="#FFBB99"/>
</svg>
