<svg width="20" height="20" viewBox="0 0 20 20" fill="none" xmlns="http://www.w3.org/2000/svg">
<path d="M16.0264 3.98671C15.8264 3.98671 12.78 3.98671 12.9801 3.98671C11.331 3.98671 9.99994 2.6511 9.99994 0.996678C9.99994 0.438472 9.56292 0 9.00656 0H6.95358C5.30451 0 3.97345 1.33548 3.97345 2.99003C3.97345 3.32884 4.03312 3.66771 4.17206 3.98671H3.97345C2.88073 3.98671 1.98669 4.88372 1.98669 5.98007C1.98669 7.02724 2.84696 7.97342 3.97345 7.97342L5.7616 8.9701H9.99994H14.3917L16.0264 7.97342C17.156 7.97342 18.0132 7.02392 18.0132 5.98007C18.0132 4.88372 17.1191 3.98671 16.0264 3.98671Z" fill="#FFD9B3"/>
<path d="M16.0265 7.97333C17.156 7.97333 18.0132 7.02382 18.0132 5.97997C18.0132 4.88363 17.1192 3.98662 16.0265 3.98662C15.8264 3.98662 12.7801 3.98662 12.9801 3.98662C11.3311 3.98662 10 2.651 10 0.996582V8.97H14.3917L16.0265 7.97333Z" fill="#FFBB99"/>
<path d="M19.0066 7.97363H0.993377C0.43702 7.97363 0 8.4121 0 8.97031V19.0035C0 19.5616 0.43702 20.0002 0.993377 20.0002H19.0066C19.563 20.0002 20 19.5616 20 19.0035V8.97031C20 8.4121 19.563 7.97363 19.0066 7.97363Z" fill="#7ADFE3"/>
<path d="M20 8.97031V19.0035C20 19.5616 19.563 20.0002 19.0066 20.0002H10V7.97363H19.0066C19.563 7.97363 20 8.4121 20 8.97031Z" fill="#68C9E0"/>
<path d="M13.9735 12.9566C13.9735 13.5147 13.5364 13.9533 12.9801 13.9533H6.95358C6.39722 13.9533 5.96021 13.5147 5.96021 12.9566C5.96021 12.3984 6.39722 11.96 6.95358 11.96H12.9801C13.5364 11.96 13.9735 12.3984 13.9735 12.9566Z" fill="#ECF2FF"/>
<path d="M13.9735 12.9566C13.9735 13.5147 13.5365 13.9533 12.9801 13.9533H10V11.96H12.9801C13.5365 11.96 13.9735 12.3984 13.9735 12.9566Z" fill="#D9E5FF"/>
</svg>
