<svg width="20" height="16" viewBox="0 0 20 16" fill="none" xmlns="http://www.w3.org/2000/svg">
<path d="M20 2.85714V1.14286C20 1.00168 19.9462 0.865524 19.8489 0.76061C19.778 0.682476 19.1222 0 18.2422 0C17.7673 0 17.3185 0.198667 17.0312 0.393981C16.744 0.198667 16.3343 0 15.8594 0C15.3845 0 14.9748 0.198667 14.6875 0.393981C14.4002 0.198667 13.9905 0 13.5156 0C13.0407 0 12.631 0.198667 12.3438 0.393981C12.0565 0.198667 11.6468 0 11.1719 0C10.697 0 10.2873 0.198667 10 0.393981C9.71273 0.198667 9.30305 0 8.82812 0C8.3532 0 7.94352 0.198667 7.65625 0.393981C7.36898 0.198667 6.9593 0 6.48438 0C6.00945 0 5.59977 0.198667 5.3125 0.393981C5.02523 0.198667 4.61555 0 4.14062 0C3.6657 0 3.25602 0.198667 2.96875 0.393981C2.68148 0.198667 2.23273 0 1.75781 0C0.877773 0 0.222031 0.682476 0.151055 0.76061C0.0537891 0.865524 0 1.00168 0 1.14286V2.85714L0.585938 4V5.14286L0 6.28571C0 6.74811 0.0447656 7.1995 0.109141 7.6448L7.88176 15.7738C8.5652 15.9188 9.27266 16 10 16C10.7273 16 11.4348 15.9188 12.1182 15.7738L19.8909 7.6448C19.9552 7.1995 20 6.74811 20 6.28571L19.4141 5.14286V4L20 2.85714Z" fill="#ECF2FF"/>
<path d="M19.8909 7.6448C19.9552 7.1995 20 6.74811 20 6.28571L19.4141 5.14286V4L20 2.85714V1.14286C20 1.00168 19.9462 0.865524 19.8489 0.76061C19.778 0.682476 19.1222 0 18.2422 0C17.7673 0 17.3185 0.198667 17.0312 0.393981C16.744 0.198667 16.3343 0 15.8594 0C15.3845 0 14.9748 0.198667 14.6875 0.393981C14.4002 0.198667 13.9905 0 13.5156 0C13.0407 0 12.631 0.198667 12.3438 0.393981C12.0565 0.198667 11.6468 0 11.1719 0C10.697 0 10.2873 0.198667 10 0.393981V16C10.7273 16 11.4348 15.9188 12.1182 15.7738L19.8909 7.6448Z" fill="#D9E5FF"/>
<path d="M1.7578 7.42871C1.19698 7.42871 0.644443 7.50696 0.109131 7.64494C0.164131 8.02524 0.241592 8.39766 0.340498 8.76254C1.31815 12.3693 4.35417 15.025 7.88175 15.7739C8.11538 15.118 8.24218 14.4236 8.24218 13.7144C8.24218 10.2485 5.3112 7.42871 1.7578 7.42871Z" fill="#D9E5FF"/>
<path d="M15.8594 2.85693C15.0965 2.85693 14.4522 3.3361 14.2095 3.99979H10H5.79051C5.54781 3.3361 4.90352 2.85693 4.14062 2.85693H0V6.28551H4.14062C4.90352 6.28551 5.54781 5.80634 5.79051 5.14265H10H14.2095C14.4522 5.80634 15.0965 6.28551 15.8594 6.28551H20V2.85693H15.8594Z" fill="#7ADFE3"/>
<path d="M15.8594 6.28551H20V2.85693H15.8594C15.0965 2.85693 14.4522 3.3361 14.2095 3.99979H10V5.14265H14.2095C14.4522 5.80634 15.0965 6.28551 15.8594 6.28551Z" fill="#68C9E0"/>
<path d="M18.2422 7.42871C14.6888 7.42871 11.7578 10.2485 11.7578 13.7144C11.7578 14.4236 11.8846 15.118 12.1182 15.7739C16.0392 14.9415 19.2946 11.7677 19.8909 7.64494C19.3555 7.50696 18.803 7.42871 18.2422 7.42871Z" fill="#BFD6FF"/>
</svg>
