<svg width="24" height="24" viewBox="0 0 24 24" fill="none" xmlns="http://www.w3.org/2000/svg">
<rect width="24" height="24" rx="12" fill="#FCE3EA"/>
<path fill-rule="evenodd" clip-rule="evenodd" d="M5.96963 3.46599C5.96963 3.20863 5.75257 3 5.48481 3C5.21706 3 5 3.20863 5 3.46599V9.53731C5.00079 10.0646 5.13804 10.5833 5.39941 11.0469C5.61783 11.4343 5.91719 11.7729 6.27764 12.0421V13.4765C5.59022 15.7806 5.34975 18.1868 5.56845 20.5749C5.59193 20.8313 5.82719 21.0208 6.09391 20.9982C6.36063 20.9757 6.55782 20.7495 6.53435 20.4932C6.32415 18.1979 6.55936 15.885 7.22803 13.6723C7.24079 13.6301 7.24727 13.5863 7.24727 13.5424V12.5434C7.46636 12.6147 7.69335 12.664 7.92461 12.69C8.4341 12.7472 8.95047 12.6898 9.43295 12.5224L9.43505 12.5216L14.4905 10.7417L15.3814 10.9376C15.7466 11.0176 16.128 10.9788 16.4664 10.829L16.4651 10.8628L16.4708 10.8688C16.4761 10.8745 16.4848 10.8838 16.4965 10.8968C16.5199 10.9227 16.5555 10.9631 16.6003 11.0169C16.69 11.1246 16.8164 11.2858 16.9574 11.4936C17.2403 11.9104 17.5765 12.5071 17.7963 13.2295C18.229 14.6519 18.2243 16.5946 16.3606 18.6847C16.2853 18.7692 16.2439 18.8767 16.2439 18.988V20.5303C16.2439 20.7877 16.461 20.9963 16.7288 20.9963C16.9965 20.9963 17.2136 20.7877 17.2136 20.5303V19.158C19.2006 16.8477 19.2304 14.623 18.727 12.9679C18.4738 12.1356 18.0893 11.4556 17.7696 10.9844C17.6092 10.7482 17.4639 10.5626 17.3573 10.4345C17.3039 10.3704 17.26 10.3205 17.2286 10.2858C17.2129 10.2684 17.2004 10.2548 17.1912 10.2451L17.1806 10.2337C17.2477 10.1339 17.3037 10.0266 17.3471 9.91355L17.3502 9.90517C17.4237 9.70166 17.4544 9.48615 17.4405 9.27117C17.4265 9.05619 17.3683 8.846 17.269 8.65284C17.1698 8.45968 17.0316 8.28743 16.8624 8.14611C16.6933 8.00478 16.4966 7.8972 16.2838 7.82962L15.9022 7.71083L16.085 7.1429L16.0852 7.14222C16.2167 6.73731 16.2289 6.30526 16.1203 5.8941C16.0116 5.48287 15.7864 5.10868 15.4697 4.81315L15.4694 4.8128L13.6753 3.13227C13.4836 2.95265 13.1766 2.95645 12.9898 3.14075C12.8029 3.32506 12.8068 3.62009 12.9986 3.79971L14.7933 5.48092L14.7941 5.4816C14.9822 5.65708 15.116 5.87929 15.1805 6.12349C15.245 6.36769 15.2377 6.62433 15.1595 6.86481L15.1591 6.86618L14.9797 7.42363L14.6727 7.32804L14.6716 7.32772C14.1238 7.15846 13.5409 7.12068 12.9744 7.21757L9.55918 7.79703V3.46599C9.55918 3.20863 9.34212 3 9.07437 3C8.80661 3 8.58955 3.20863 8.58955 3.46599V8.35248C8.58955 8.49024 8.65297 8.62094 8.76277 8.70948C8.87257 8.79802 9.0175 8.83532 9.15864 8.81138L13.1443 8.13513C13.555 8.06487 13.9773 8.09223 14.3744 8.21483L14.3749 8.21499L15.9796 8.71455L15.9808 8.71493C16.0711 8.74376 16.1545 8.78948 16.2263 8.84947C16.2984 8.90973 16.3573 8.98317 16.3996 9.0655C16.4419 9.14783 16.4668 9.23744 16.4727 9.32911C16.4786 9.41931 16.466 9.5097 16.4357 9.59519C16.3744 9.75199 16.2562 9.8823 16.1029 9.96216C15.9482 10.0428 15.7684 10.0665 15.5968 10.0289L14.5667 9.8024C14.4754 9.7823 14.3799 9.7881 14.2919 9.81909L9.10364 11.6458L9.10258 11.6461C8.76175 11.7643 8.39702 11.8047 8.03714 11.7643C7.67878 11.724 7.33489 11.6047 7.0325 11.4156C7.02917 11.4134 7.0258 11.4113 7.02241 11.4092C6.70032 11.2057 6.4356 10.9286 6.2519 10.6028C6.06724 10.2753 5.97024 9.9088 5.96963 9.53628V3.46599Z" fill="#221F20"/>
</svg>
