<svg width="24" height="24" viewBox="0 0 24 24" fill="none" xmlns="http://www.w3.org/2000/svg">
<rect width="24" height="24" rx="12" fill="#FCF1E7"/>
<path d="M15.6023 11.893H14.8251C14.7313 11.893 14.6414 11.8542 14.5751 11.7853C14.5087 11.7164 14.4715 11.623 14.4715 11.5255C14.4715 11.4811 14.4793 11.4374 14.494 11.3966C14.5115 11.3479 14.539 11.3032 14.5751 11.2657C14.6414 11.1968 14.7313 11.158 14.8251 11.158H15.6023C15.6961 11.158 15.7861 11.1968 15.8524 11.2657C15.9187 11.3346 15.9559 11.4281 15.9559 11.5255C15.9559 11.623 15.9187 11.7164 15.8524 11.7853C15.7861 11.8542 15.6961 11.893 15.6023 11.893Z" fill="#231F20"/>
<path d="M14.8251 13.6374H15.6023C15.6961 13.6374 15.7861 13.5987 15.8524 13.5298C15.9187 13.4608 15.9559 13.3674 15.9559 13.2699C15.9559 13.1725 15.9187 13.079 15.8524 13.0101C15.7861 12.9412 15.6961 12.9025 15.6023 12.9025H14.8251C14.7313 12.9025 14.6414 12.9412 14.5751 13.0101C14.5087 13.079 14.4715 13.1725 14.4715 13.2699C14.4715 13.3074 14.477 13.3442 14.4875 13.3792C14.5044 13.4355 14.5342 13.4873 14.5751 13.5298C14.6414 13.5987 14.7313 13.6374 14.8251 13.6374Z" fill="#231F20"/>
<path d="M15.6023 15.3818H14.8251C14.7313 15.3818 14.6414 15.343 14.5751 15.2741C14.5424 15.2402 14.5168 15.2002 14.4992 15.1568C14.4811 15.1121 14.4715 15.0638 14.4715 15.0143C14.4715 14.9169 14.5087 14.8234 14.5751 14.7545C14.6414 14.6856 14.7313 14.6468 14.8251 14.6468H15.6023C15.6961 14.6468 15.7861 14.6856 15.8524 14.7545C15.9187 14.8234 15.9559 14.9169 15.9559 15.0143C15.9559 15.0562 15.9491 15.0973 15.936 15.136C15.9186 15.1875 15.8902 15.2348 15.8524 15.2741C15.7861 15.343 15.6961 15.3818 15.6023 15.3818Z" fill="#231F20"/>
<path d="M14.8251 17.1262H15.6023C15.6961 17.1262 15.7861 17.0875 15.8524 17.0185C15.9187 16.9496 15.9559 16.8561 15.9559 16.7587C15.9559 16.6612 15.9187 16.5678 15.8524 16.4989C15.7861 16.43 15.6961 16.3913 15.6023 16.3913H14.8251C14.7313 16.3913 14.6414 16.43 14.5751 16.4989C14.5087 16.5678 14.4715 16.6612 14.4715 16.7587C14.4715 16.8561 14.5087 16.9496 14.5751 17.0185C14.6414 17.0875 14.7313 17.1262 14.8251 17.1262Z" fill="#231F20"/>
<path fill-rule="evenodd" clip-rule="evenodd" d="M14.4132 5.52513V4.07552C14.413 4.0627 14.4122 4.04994 14.4108 4.03727C14.4095 4.02667 14.4079 4.01617 14.4058 4.00572C14.3962 3.95855 14.3777 3.91365 14.351 3.87362L13.2591 2.16558C13.2272 2.11446 13.1834 2.07252 13.1318 2.04358C13.1229 2.0386 13.1138 2.03402 13.1046 2.02988C13.1 2.02781 13.0953 2.02584 13.0906 2.02401C13.0869 2.02253 13.0832 2.02115 13.0795 2.01982C13.0629 2.01386 13.046 2.00923 13.0288 2.00592C13.0074 2.00188 12.9856 1.99986 12.9638 2.00001H11.0208C10.9622 2.00006 10.9046 2.01519 10.853 2.04407C10.8015 2.07296 10.7576 2.11471 10.7254 2.16558L9.63346 3.87362C9.59506 3.93336 9.57474 4.0037 9.57516 4.07552V5.52513H8.65419C8.56041 5.52513 8.47047 5.56382 8.40416 5.63273C8.33784 5.70164 8.30061 5.79515 8.30061 5.8926V8.00577C8.2813 8.01306 8.26204 8.02056 8.24285 8.02824C8.21297 8.04017 8.18325 8.05255 8.15367 8.06531C7.72784 8.24946 7.34124 8.51933 7.01616 8.85935C6.6911 9.19936 6.434 9.60286 6.2596 10.0466C6.08522 10.4903 5.99702 10.9655 6.00008 11.4448V19.9245C5.99906 20.4732 6.20756 20.9999 6.57984 21.389C6.95214 21.7781 7.45776 21.9979 7.9858 22H15.9986C16.2614 22.0011 16.5218 21.9481 16.7648 21.8442C17.0078 21.7404 17.2287 21.5876 17.4147 21.3947C17.6007 21.2018 17.7481 20.9726 17.8486 20.7203C17.949 20.468 18.0004 20.1975 17.9999 19.9245V11.4448C18.003 10.9655 17.9148 10.4903 17.7404 10.0466C17.566 9.60286 17.3089 9.19936 16.9838 8.85935C16.6588 8.51933 16.2722 8.24946 15.8463 8.06531C15.7927 8.0421 15.7385 8.02031 15.6839 7.99995V5.8926C15.6839 5.79515 15.6466 5.70164 15.5803 5.63273C15.514 5.56382 15.4241 5.52513 15.3303 5.52513H14.4132ZM9.00783 6.26002V7.746H14.9767V6.26002H9.00783ZM13.7021 5.52513V4.18859L12.7733 2.73489H11.219L10.2902 4.18859L10.2824 5.52513H13.7021ZM9.48966 8.50514C8.74793 8.51046 8.03852 8.82124 7.51694 9.36927C6.99538 9.91729 6.70419 10.6578 6.7073 11.4286V19.9083C6.70628 20.2621 6.84026 20.6019 7.07991 20.8532C7.31956 21.1045 7.64535 21.2468 7.9858 21.2489H15.9986C16.3391 21.2468 16.6649 21.1045 16.9045 20.8532C17.1442 20.6019 17.2782 20.2621 17.2771 19.9083V11.4286C17.2792 10.6582 16.9877 9.91817 16.4664 9.3704C15.945 8.82262 15.2362 8.51155 14.4948 8.50514H9.48966Z" fill="#231F20"/>
</svg>
