<svg width="24" height="24" viewBox="0 0 24 24" fill="none" xmlns="http://www.w3.org/2000/svg">
<rect width="24" height="24" rx="12" fill="#F4F8E8"/>
<path fill-rule="evenodd" clip-rule="evenodd" d="M11.2652 5.91249C10.8362 5.86802 10.4149 5.7409 9.97397 5.58708C9.87114 5.5512 9.76581 5.5133 9.65876 5.47477C9.32196 5.35356 8.96801 5.22618 8.62068 5.13648C8.15273 5.01563 7.65416 4.94992 7.13228 5.04634C6.60511 5.14373 6.08512 5.40073 5.5661 5.87499C5.41415 6.01383 5.37151 6.24504 5.46291 6.43445L7.5494 10.7583H5.75944C5.61692 10.7583 5.48348 10.8326 5.40237 10.957L3.07717 14.5232C2.97642 14.6777 2.97414 14.8817 3.07141 15.0388L5.39661 18.7923C5.47692 18.9219 5.61328 19 5.75944 19H18.2406C18.385 19 18.5199 18.9238 18.6006 18.7967L20.9258 15.135C21.0248 14.9792 21.0247 14.7753 20.9257 14.6195L18.6005 10.9615C18.5198 10.8345 18.3849 10.7583 18.2406 10.7583H16.4417L18.6793 6.60751C18.7469 6.48209 18.7552 6.33028 18.7017 6.19742C18.6482 6.06456 18.5391 5.96601 18.4069 5.93122C18.3051 5.90439 18.1877 5.87284 18.0585 5.83807C17.6235 5.72109 17.0537 5.56782 16.4842 5.43646C15.7591 5.26922 14.9721 5.12174 14.439 5.14679C13.9106 5.17306 13.369 5.37403 12.8959 5.54987C12.8357 5.57225 12.7765 5.59428 12.7186 5.61544C12.1696 5.81619 11.7025 5.95832 11.2652 5.91249ZM8.50925 10.7253L6.39962 6.35347C6.71108 6.1242 7.00301 6.00594 7.2812 5.95455C7.64274 5.88775 8.01223 5.9281 8.41537 6.03221C8.72205 6.11141 9.02409 6.22005 9.35119 6.33769C9.46493 6.3786 9.58175 6.42062 9.7028 6.46285C10.1573 6.62142 10.6529 6.77524 11.1805 6.82996C11.8296 6.89791 12.4632 6.68384 13.0015 6.48703C13.0616 6.46504 13.1205 6.4433 13.1783 6.42197C13.6728 6.23953 14.0852 6.08737 14.4779 6.06773C14.8826 6.04885 15.5641 6.16763 16.2997 6.3373C16.7734 6.44655 17.2435 6.57036 17.6412 6.67695L15.4589 10.7253H8.50925ZM3.95804 14.7921L5.98701 11.6802H18.0097L20.042 14.8775L18.0096 18.0781H5.99362L3.95804 14.7921Z" fill="#010101"/>
</svg>
