<svg width="24" height="24" viewBox="0 0 24 24" fill="none" xmlns="http://www.w3.org/2000/svg">
<rect width="24" height="24" rx="12" fill="#E2F3F7"/>
<path fill-rule="evenodd" clip-rule="evenodd" d="M4.15339 12.3906C4.15339 12.4537 4.16653 12.5154 4.19123 12.5718H3.46866C3.4093 12.5659 3.34944 12.5729 3.29286 12.5924C3.23627 12.6119 3.18422 12.6435 3.14009 12.685C3.09596 12.7266 3.06069 12.7773 3.03657 12.8338C3.01244 12.8904 3 12.9515 3 13.0133C3 13.0751 3.01244 13.1362 3.03657 13.1927C3.06069 13.2492 3.09596 13.2999 3.14009 13.3415C3.18422 13.383 3.23627 13.4146 3.29286 13.4341C3.34944 13.4536 3.4093 13.4606 3.46866 13.4548H4.15339V15.2538C4.15442 16.4688 4.62118 17.6338 5.45119 18.4929C5.69605 18.7464 5.96662 18.9671 6.25656 19.1524L5.79126 20.4C5.76791 20.4662 5.76 20.5371 5.76818 20.6071C5.77636 20.677 5.80035 20.744 5.83827 20.8025C5.8762 20.861 5.92696 20.9094 5.98639 20.9437C6.04582 20.978 6.11227 20.9973 6.18028 21C6.26788 21.001 6.35363 20.9741 6.42598 20.9229C6.49834 20.8718 6.55378 20.7989 6.58483 20.7141L7.02328 19.5423C7.51644 19.7344 8.04338 19.8358 8.58045 19.8363H15.5011C16.043 19.8353 16.5744 19.7317 17.0712 19.536L17.5084 20.714C17.5385 20.7963 17.5916 20.8674 17.6609 20.9183C17.7302 20.9692 17.8125 20.9976 17.8975 20.9999C17.947 20.9988 17.9958 20.9879 18.0414 20.9677C18.0939 20.9476 18.142 20.9169 18.1828 20.8773C18.2237 20.8377 18.2565 20.7901 18.2793 20.7372C18.3021 20.6843 18.3146 20.6272 18.3158 20.5693C18.317 20.5114 18.3071 20.4538 18.2865 20.3999L17.8245 19.151C18.1142 18.9657 18.3846 18.7451 18.6293 18.4918C19.4591 17.6328 19.9261 16.4685 19.9282 15.2538V13.4548H20.6128C20.7188 13.4443 20.8171 13.3932 20.8887 13.3116C20.9603 13.23 21 13.1236 21 13.0133C21 12.903 20.9603 12.7966 20.8887 12.715C20.8171 12.6333 20.7188 12.5823 20.6128 12.5718H4.96364C4.98834 12.5154 5.00148 12.4537 5.00148 12.3906V5.73823C4.99017 5.48691 5.02824 5.23582 5.11336 5.00016C5.19848 4.76449 5.32891 4.54917 5.49673 4.36717C5.66456 4.18518 5.8663 4.04032 6.08976 3.94134C6.31322 3.84236 6.55375 3.79131 6.79681 3.79131C7.03987 3.79131 7.28039 3.84236 7.50385 3.94134C7.72731 4.04032 7.92906 4.18518 8.09688 4.36717C8.26471 4.54917 8.39513 4.76449 8.48025 5.00016C8.55271 5.20076 8.59107 5.41253 8.59391 5.62612C7.27995 5.82239 6.27348 6.87214 6.27348 8.13415C6.27348 8.25057 6.31814 8.36221 6.39766 8.44452C6.47718 8.52684 6.58504 8.57307 6.6975 8.57307H11.3657C11.4224 8.57468 11.4788 8.56451 11.5316 8.54318C11.5844 8.52185 11.6325 8.48977 11.6731 8.44885C11.7138 8.40793 11.7461 8.35903 11.7681 8.30497C11.7901 8.25092 11.8015 8.19283 11.8014 8.13415C11.8014 6.85834 10.7761 5.79945 9.4416 5.61999C9.4131 4.93676 9.13841 4.28756 8.6693 3.80198C8.1732 3.28846 7.50034 3 6.79875 3C6.09717 3 5.4243 3.28846 4.92821 3.80198C4.43211 4.3155 4.15339 5.012 4.15339 5.73823V12.3906ZM19.0762 13.4548H5.00148V15.2538C5.00354 16.2353 5.38139 17.1759 6.05224 17.8696C6.7231 18.5633 7.63223 18.9534 8.58045 18.9545H15.5011C16.449 18.9534 17.3577 18.5631 18.028 17.8694C18.6982 17.1756 19.0752 16.2349 19.0762 15.2538V13.4548ZM10.1224 6.80213C10.4496 7.01944 10.7096 7.32938 10.8717 7.69519H7.17988C7.34192 7.32938 7.60198 7.01944 7.92919 6.80213C8.25641 6.58481 8.63701 6.46929 9.02578 6.46929C9.41455 6.46929 9.79516 6.58481 10.1224 6.80213Z" fill="#221F20"/>
</svg>
