<svg width="24" height="24" viewBox="0 0 24 24" fill="none" xmlns="http://www.w3.org/2000/svg">
<rect width="24" height="24" rx="12" fill="#F4F0F7"/>
<path fill-rule="evenodd" clip-rule="evenodd" d="M10.1242 9.82111C9.5128 9.82111 8.92645 10.0697 8.49413 10.5122C8.06181 10.9548 7.81893 11.5549 7.81893 12.1808C7.81893 12.8066 8.06181 13.4068 8.49413 13.8493C8.92645 14.2918 9.5128 14.5404 10.1242 14.5404H13.965C14.5764 14.5404 15.1628 14.2918 15.5951 13.8493C16.0274 13.4068 16.2703 12.8066 16.2703 12.1808C16.2703 11.5549 16.0274 10.9548 15.5951 10.5122C15.1628 10.0697 14.5764 9.82111 13.965 9.82111H10.1242ZM9.12513 11.1581C9.3901 10.8869 9.74947 10.7345 10.1242 10.7345H13.965C14.3398 10.7345 14.6991 10.8869 14.9641 11.1581C15.2291 11.4294 15.3779 11.7972 15.3779 12.1808C15.3779 12.5643 15.2291 12.9322 14.9641 13.2034C14.6991 13.4746 14.3398 13.627 13.965 13.627H10.1242C9.74947 13.627 9.3901 13.4746 9.12513 13.2034C8.86015 12.9322 8.71129 12.5643 8.71129 12.1808C8.71129 11.7972 8.86015 11.4294 9.12513 11.1581Z" fill="black"/>
<path fill-rule="evenodd" clip-rule="evenodd" d="M6.62911 6C5.4014 6 4.22396 6.49922 3.35583 7.38783C2.48771 8.27645 2 9.48167 2 10.7384V13.2616C2 14.5183 2.48771 15.7236 3.35583 16.6122C4.22396 17.5008 5.4014 18 6.62911 18C6.63958 18 6.65004 17.9996 6.66048 17.9989L11.9057 17.6205L17.3369 17.9989C17.347 17.9996 17.3571 18 17.3672 18C18.5952 18 19.7729 17.501 20.6416 16.6125C21.5103 15.7241 21.9989 14.519 22 13.262V10.738C21.9989 9.48098 21.5103 8.27587 20.6416 7.38746C19.7729 6.49904 18.5952 6 17.3672 6C17.3561 6 17.3451 6.00042 17.3341 6.00126L11.9168 6.41353L6.66321 6.00134C6.65187 6.00045 6.64049 6 6.62911 6ZM3.98683 8.03372C4.68369 7.32041 5.62746 6.91793 6.61252 6.91346L11.8822 7.32691C11.9046 7.32867 11.927 7.3287 11.9494 7.32699L17.3833 6.91345C18.3689 6.91779 19.3133 7.32022 20.0109 8.03363C20.7123 8.75092 21.1068 9.72391 21.1076 10.7388V13.2612C21.1068 14.2761 20.7123 15.2491 20.0109 15.9664C19.313 16.6801 18.368 17.0826 17.3819 17.0866L11.9355 16.707C11.9149 16.7056 11.8943 16.7056 11.8738 16.7071L6.61386 17.0865C5.62831 17.0824 4.68401 16.6799 3.98683 15.9663C3.28605 15.249 2.89236 14.2761 2.89236 13.2616V10.7384C2.89236 9.72392 3.28605 8.75103 3.98683 8.03372Z" fill="black"/>
</svg>
