<svg width="24" height="24" viewBox="0 0 24 24" fill="none" xmlns="http://www.w3.org/2000/svg">
<rect width="24" height="24" rx="12" fill="#FCF1E7"/>
<path fill-rule="evenodd" clip-rule="evenodd" d="M4 9.19851V11.4965C4.00206 13.1404 4.6375 14.7164 5.76692 15.8785C6.89634 17.0406 8.42745 17.6939 10.0241 17.695H13.3933C14.9913 17.6939 16.5236 17.0395 17.6533 15.8757C18.7829 14.7119 19.4174 13.1338 19.4174 11.4885V10.2336C19.4174 10.0979 19.3651 9.96783 19.2719 9.87189C19.2012 9.7991 19.1114 9.75049 19.0146 9.73127L19.9337 8.78284H21.4552C21.5245 8.78914 21.5942 8.78053 21.66 8.75757C21.7054 8.74172 21.7483 8.71928 21.7873 8.69101C21.8049 8.67835 21.8216 8.66452 21.8374 8.64956C21.8887 8.60127 21.9296 8.54248 21.9576 8.47701C21.9856 8.41154 22 8.3408 22 8.26929C22 8.19777 21.9856 8.12703 21.9576 8.06156C21.9296 7.99609 21.8887 7.93735 21.8374 7.88906C21.7862 7.84076 21.7258 7.804 21.66 7.78105C21.5942 7.75809 21.5245 7.74948 21.4552 7.75578H19.728C19.6629 7.75609 19.5985 7.76966 19.5386 7.79573C19.4786 7.82178 19.4242 7.85984 19.3786 7.90764L17.6127 9.72202H11.4293V3.51157C11.4293 3.44406 11.4163 3.3772 11.3911 3.31487C11.3799 3.28731 11.3665 3.26087 11.3509 3.23582C11.3313 3.20425 11.3083 3.17493 11.2824 3.14842C11.2358 3.10085 11.1806 3.06324 11.1199 3.03778C11.0591 3.01229 10.9941 2.99948 10.9285 3.00002H10.0241C8.42745 3.00107 6.89634 3.65432 5.76692 4.81642C4.6375 5.97852 4.00206 7.55452 4 9.19851ZM10.9285 10.7451H4.99753V11.4885C4.99753 12.8664 5.52916 14.1878 6.47547 15.1622C7.42179 16.1365 8.70525 16.6839 10.0435 16.6839H13.4127C14.751 16.6839 16.0345 16.1365 16.9808 15.1622C17.9271 14.1878 18.4587 12.8664 18.4587 11.4885V10.7371L10.991 10.7416C10.9851 10.7423 10.9792 10.7429 10.9733 10.7434L10.9662 10.744C10.9537 10.7448 10.9411 10.7452 10.9285 10.7451ZM9.75244 9.72202H4.99753V9.19851C5.00286 8.00904 5.40421 6.86336 6.12565 5.94828C6.14944 5.9985 6.18123 6.04487 6.22023 6.08524L9.75244 9.72202ZM10.0435 4.02708C8.84498 4.02708 7.69025 4.4661 6.7823 5.25792C6.83555 5.28324 6.88455 5.31827 6.92669 5.36191L10.4317 8.97066V4.02708H10.0435Z" fill="#231F20"/>
<path fill-rule="evenodd" clip-rule="evenodd" d="M9.27108 21C8.98535 21.0008 8.70584 20.9143 8.46786 20.7514C8.22991 20.5885 8.04422 20.3566 7.93434 20.085C7.82446 19.8134 7.7953 19.5144 7.85057 19.2257C7.90584 18.9371 8.04306 18.6718 8.24484 18.4635C8.44661 18.2552 8.7039 18.1132 8.98409 18.0555C9.26428 17.9978 9.55481 18.027 9.81887 18.1394C10.0829 18.2518 10.3087 18.4424 10.4675 18.6869C10.6264 18.9315 10.7112 19.2191 10.7112 19.5133C10.7112 19.9069 10.5596 20.2844 10.2896 20.5631C10.0196 20.8418 9.65336 20.9989 9.27108 21ZM9.27108 19.0577C9.18248 19.0569 9.09567 19.0833 9.02166 19.1335C8.94768 19.1837 8.88985 19.2554 8.85559 19.3396C8.82133 19.4237 8.81214 19.5165 8.82925 19.606C8.84635 19.6955 8.88892 19.7777 8.95159 19.8422C9.01425 19.9068 9.09416 19.9507 9.1811 19.9682C9.26805 19.9859 9.35815 19.9764 9.43986 19.9411C9.52159 19.9059 9.59124 19.8463 9.64 19.7701C9.68876 19.694 9.71434 19.6045 9.71358 19.5133C9.71358 19.3925 9.66698 19.2766 9.58399 19.1912C9.501 19.1057 9.38845 19.0577 9.27108 19.0577Z" fill="#231F20"/>
<path fill-rule="evenodd" clip-rule="evenodd" d="M13.4944 20.7514C13.7324 20.9143 14.012 21.0008 14.2977 21C14.6797 20.9979 15.0454 20.8404 15.3151 20.562C15.5848 20.2835 15.7367 19.9066 15.7377 19.5133C15.7377 19.2191 15.653 18.9315 15.4941 18.6869C15.3353 18.4424 15.1095 18.2518 14.8455 18.1394C14.5814 18.027 14.2909 17.9978 14.0107 18.0555C13.7305 18.1132 13.4732 18.2552 13.2714 18.4635C13.0696 18.6718 12.9324 18.9371 12.8771 19.2257C12.8219 19.5144 12.851 19.8134 12.9609 20.085C13.0708 20.3566 13.2565 20.5885 13.4944 20.7514ZM14.0482 19.1335C14.1222 19.0833 14.2091 19.0569 14.2977 19.0577C14.4147 19.0587 14.5267 19.1071 14.6095 19.1923C14.6922 19.2775 14.7392 19.3928 14.7402 19.5133C14.741 19.6045 14.7153 19.694 14.6666 19.7701C14.6178 19.8463 14.5482 19.9059 14.4664 19.9411C14.3847 19.9764 14.2946 19.9859 14.2077 19.9682C14.1207 19.9507 14.0409 19.9068 13.9782 19.8422C13.9155 19.7777 13.8729 19.6955 13.8558 19.606C13.8387 19.5165 13.8479 19.4237 13.8822 19.3396C13.9164 19.2554 13.9742 19.1837 14.0482 19.1335Z" fill="#231F20"/>
</svg>
