<svg width="24" height="24" viewBox="0 0 24 24" fill="none" xmlns="http://www.w3.org/2000/svg">
<rect width="24" height="24" rx="12" fill="#F4F8E8"/>
<path d="M19 4H5V19.2881H6.60611V20H7.73779V19.2881H16.2467V20H17.3745V19.2881H18.9845L19 4ZM17.8684 7.02532H9.55392V5.20022H17.8684V7.02532ZM8.42224 5.20022V7.02532H6.13557V5.20022H8.42224ZM6.13557 18.088V8.22554H17.8684V18.088H6.13557Z" fill="#221F20"/>
<path d="M12 10C11.4066 10 10.8266 10.2053 10.3333 10.5899C9.83995 10.9744 9.45542 11.521 9.22835 12.1606C9.00129 12.8001 8.94189 13.5039 9.05765 14.1828C9.1734 14.8617 9.45911 15.4854 9.87867 15.9749C10.2982 16.4643 10.8328 16.7977 11.4147 16.9328C11.9967 17.0678 12.5999 16.9985 13.148 16.7336C13.6962 16.4686 14.1648 16.0201 14.4944 15.4445C14.824 14.8689 15 14.1922 15 13.5C14.9992 12.572 14.6829 11.6823 14.1204 11.0261C13.558 10.3699 12.7954 10.0009 12 10ZM12 15.9975C11.5758 15.9982 11.1609 15.852 10.8079 15.5775C10.4549 15.3029 10.1797 14.9124 10.0171 14.4552C9.85446 13.9981 9.81176 13.4949 9.89438 13.0095C9.977 12.524 10.1812 12.0781 10.4812 11.7281C10.7812 11.3781 11.1635 11.1398 11.5796 11.0434C11.9957 10.947 12.4269 10.9969 12.8188 11.1866C13.2106 11.3763 13.5454 11.6974 13.7807 12.1092C14.016 12.5211 14.1413 13.005 14.1407 13.5C14.14 14.1621 13.9142 14.7968 13.5129 15.265C13.1116 15.7332 12.5675 15.9966 12 15.9975Z" fill="#221F20"/>
</svg>
