<svg width="24" height="24" viewBox="0 0 24 24" fill="none" xmlns="http://www.w3.org/2000/svg">
<rect width="24" height="24" rx="12" fill="#E2F3F7"/>
<path d="M8.36619 7.40964C8.36619 7.10459 8.1442 6.85731 7.87035 6.85731C7.59651 6.85731 7.37451 7.10459 7.37451 7.40964V7.83902C7.37451 8.14407 7.59651 8.39135 7.87035 8.39135C8.1442 8.39135 8.36619 8.14407 8.36619 7.83902V7.40964Z" fill="#221F20"/>
<path fill-rule="evenodd" clip-rule="evenodd" d="M6.67972 5.16216C7.34771 4.41806 8.25369 4 9.1984 4C10.1431 4 11.0491 4.41806 11.7171 5.16216C12.3851 5.90627 12.7604 6.91548 12.7604 7.96779V11.2149C12.7605 11.2505 12.7672 11.2856 12.78 11.3182C12.7929 11.3509 12.8117 11.3803 12.8353 11.4045C12.8588 11.4288 12.8866 11.4474 12.9169 11.4591C12.9473 11.4708 12.9794 11.4755 13.0113 11.4727L19.4663 10.9223C19.604 10.9106 19.7398 10.9633 19.8411 11.0678C19.9424 11.1724 20 11.3192 20 11.473V12.6167C19.999 14.5752 19.2999 16.4534 18.0563 17.8379C16.8127 19.2223 15.1265 20 13.3684 20H12.2645C10.5067 20 8.82076 19.2221 7.57774 17.8375C6.33473 16.4529 5.63642 14.5749 5.63642 12.6167V9.66384H5.13713C4.86328 9.66384 4.64129 9.41655 4.64129 9.11151C4.64129 9.05941 4.64777 9.00899 4.65987 8.96121H4.49584C4.22199 8.96121 4 8.71392 4 8.40888C4 8.10384 4.22199 7.85655 4.49584 7.85655H5.63782C5.66327 6.84456 6.0353 5.88 6.67972 5.16216ZM6.6281 12.6167V9.1198L6.62815 9.11151L6.6281 9.10321V8.41475L6.62812 8.40888L6.6281 8.40301V7.96779C6.6281 7.20845 6.89891 6.48022 7.38094 5.94327C7.86297 5.40632 8.51672 5.10466 9.1984 5.10466C9.88008 5.10466 10.5339 5.40633 11.0159 5.94327C11.4979 6.48021 11.7687 7.20843 11.7687 7.96779V11.2154H12.2645L11.7687 11.2165C11.769 11.4043 11.8041 11.5899 11.8718 11.7619C11.9396 11.9338 12.0384 12.0884 12.1622 12.2158C12.286 12.3433 12.4321 12.4409 12.5914 12.5025C12.7506 12.5642 12.9195 12.5886 13.0876 12.5741L19.0083 12.0693V12.6164C19.0075 14.282 18.4129 15.8791 17.3553 17.0565C16.2977 18.2339 14.8636 18.8953 13.3684 18.8953H12.2645C10.7697 18.8953 9.336 18.2339 8.27897 17.0564C7.22193 15.8789 6.6281 14.2819 6.6281 12.6167Z" fill="#221F20"/>
</svg>
