<svg width="24" height="24" viewBox="0 0 24 24" fill="none" xmlns="http://www.w3.org/2000/svg">
<path fill-rule="evenodd" clip-rule="evenodd" d="M11.5574 3.87112C10.7456 3.86674 10.0554 3.35134 9.79585 2.63201C9.67502 2.29718 9.39725 2.00012 9.04128 2.00012C8.68532 2.00012 8.38985 2.29167 8.46216 2.64021C8.55624 3.09372 8.74831 3.51164 9.01538 3.87113L8.60916 3.87113C7.7928 3.87113 7.09785 3.35442 6.83717 2.63204C6.71634 2.29721 6.43857 2.00015 6.0826 2.00015C5.72664 2.00015 5.43117 2.29174 5.50349 2.64028C5.73285 3.74577 6.54443 4.63978 7.60549 4.99146C5.59243 6.09443 4.04381 7.93165 3.3244 10.1397C2.74962 10.2484 2.23568 10.528 1.83872 10.9222C1.3217 11.4368 1 12.1497 1 12.9356C1 14.3244 2.0003 15.481 3.3244 15.7315C4.50954 19.3689 7.945 22 12 22C16.055 22 19.4905 19.3689 20.6756 15.7315C21.9997 15.481 23 14.3244 23 12.9356C23 12.1497 22.6788 11.4373 22.1618 10.9227C21.7648 10.5285 21.2504 10.2484 20.6756 10.1397C19.4905 6.50225 16.055 3.87112 12 3.87112L11.9984 3.87112L11.5574 3.87112ZM11.978 5.15264C8.37384 5.1625 5.34085 7.59421 4.44222 10.8978C4.36737 11.173 4.11727 11.3659 3.83213 11.3712C3.40992 11.379 3.0291 11.5515 2.74993 11.8287C2.46446 12.1129 2.28906 12.5033 2.28906 12.9356C2.28906 13.7896 2.97714 14.4839 3.83221 14.5C4.11733 14.5053 4.36737 14.6982 4.44222 14.9733C5.34268 18.2836 8.38619 20.7185 12 20.7185C15.6138 20.7185 18.6573 18.2836 19.5578 14.9733C19.6326 14.6982 19.8827 14.5053 20.1678 14.5C21.0229 14.4839 21.7109 13.7896 21.7109 12.9356C21.7109 12.5033 21.5355 12.1129 21.25 11.8286C20.9709 11.5515 20.5901 11.379 20.1679 11.3712C19.8827 11.3659 19.6326 11.173 19.5578 10.8978C18.9276 8.58112 17.2478 6.6932 15.0575 5.76857C15.2781 6.21671 15.4019 6.72051 15.4019 7.25306C15.4019 9.12086 13.8788 10.635 12 10.635C10.3416 10.635 8.96034 9.45525 8.6591 7.89391C8.59166 7.54439 8.88667 7.25306 9.24264 7.25306C9.5986 7.25306 9.8773 7.5484 9.98529 7.88759C10.2559 8.73748 11.0556 9.35347 12 9.35347C13.1669 9.35347 14.1128 8.41309 14.1128 7.25306C14.1128 6.09303 13.1669 5.15264 12 5.15264H11.978ZM8.30164 12.362C8.0682 12.362 7.85716 12.4572 7.70566 12.6107C7.45562 12.8641 7.17823 13.1919 6.82227 13.1919C6.4663 13.1919 6.1679 12.8966 6.27535 12.5572C6.54636 11.7012 7.35107 11.0805 8.30164 11.0805C9.25218 11.0805 10.0569 11.7012 10.3279 12.5572C10.4353 12.8966 10.1369 13.1919 9.78097 13.1919C9.425 13.1919 9.14761 12.8641 8.89757 12.6107C8.74608 12.4572 8.53504 12.362 8.30164 12.362ZM15.6984 12.362C15.465 12.362 15.2539 12.4572 15.1024 12.6107C14.8524 12.8641 14.575 13.1919 14.219 13.1919C13.8631 13.1919 13.5647 12.8966 13.6721 12.5572C13.9431 11.7012 14.7478 11.0805 15.6984 11.0805C16.6489 11.0805 17.4536 11.7012 17.7247 12.5572C17.8321 12.8966 17.5337 13.1919 17.1777 13.1919C16.8218 13.1919 16.5444 12.8641 16.2943 12.6107C16.1428 12.4572 15.9318 12.362 15.6984 12.362ZM12 18.223C10.9098 18.223 9.93386 17.7412 9.27398 16.9824C9.0399 16.7132 9.14579 16.312 9.45348 16.1315C9.75893 15.9524 10.1471 16.0626 10.404 16.3063C10.8196 16.7004 11.3816 16.9415 12 16.9415C12.6184 16.9415 13.1804 16.7004 13.596 16.3063C13.8529 16.0626 14.2411 15.9524 14.5465 16.1315C14.8542 16.312 14.9601 16.7132 14.726 16.9824C14.0661 17.7412 13.0902 18.223 12 18.223Z" fill="#FEA100"/>
</svg>
