<svg width="24" height="24" viewBox="0 0 24 24" fill="none" xmlns="http://www.w3.org/2000/svg">
<path d="M21.5559 16.943L20.2338 15.0346C20.0706 14.8086 19.9837 14.536 19.9859 14.2568V8.73909C19.9115 6.66134 19.0372 4.69361 17.5471 3.25013C16.057 1.80664 14.0673 1 11.9968 1C9.92634 1 7.93662 1.80664 6.4465 3.25013C4.95638 4.69361 4.0821 6.66134 4.00769 8.73909V14.2568C4.00819 14.5341 3.9254 14.8052 3.77013 15.0346L2.45841 16.9326C2.30231 17.1045 2.18164 17.3057 2.10334 17.5247C2.02503 17.7436 1.99065 17.976 2.00217 18.2083C2.01369 18.4407 2.07089 18.6684 2.17046 18.8785C2.27004 19.0885 2.41002 19.2767 2.58235 19.4322C2.90547 19.7247 3.32474 19.8872 3.75981 19.8885H8.01516C8.24356 20.7768 8.75875 21.564 9.48012 22.127C10.2015 22.69 11.0884 22.997 12.002 23C12.276 22.9981 12.5491 22.9703 12.8179 22.917C13.5765 22.7576 14.2752 22.3872 14.8341 21.848C15.3929 21.3088 15.7895 20.6226 15.9785 19.8678H20.2441C20.7108 19.865 21.1574 19.677 21.4864 19.3447C21.8153 19.0124 22 18.5628 22 18.0942C21.9922 17.6698 21.8349 17.2619 21.5559 16.943ZM13.8818 19.8885C13.7019 20.2336 13.4319 20.523 13.1008 20.7258C12.7697 20.9286 12.3898 21.0371 12.002 21.0398C11.6124 21.0454 11.2292 20.9403 10.8966 20.7366C10.564 20.5329 10.2955 20.2389 10.1222 19.8885H13.8818ZM12.002 2.70284C13.5954 2.70558 15.1228 3.34242 16.2495 4.47385C17.3763 5.60527 18.0105 7.13902 18.0132 8.73909V14.2568C18.0218 14.935 18.2302 15.5954 18.6122 16.1548L19.8517 17.9179H4.17295L5.39171 16.1548C5.78257 15.5998 5.99192 14.9365 5.99077 14.2568V8.73909C5.9935 7.13902 6.6277 5.60527 7.75443 4.47385C8.88116 3.34242 10.4085 2.70558 12.002 2.70284Z" fill="#424242"/>
</svg>
