<svg width="38" height="20" viewBox="0 0 38 20" fill="none" xmlns="http://www.w3.org/2000/svg">
<rect x="0.5" width="37" height="20" rx="2" fill="#5291EF"/>
<path d="M17.8047 4.46094H16.4805V10.1328H14.3242V11.1641H16.4805V12.4414H17.8047V4.46094ZM8.78125 8.52734L8.94531 9.57031C9.75977 9.57031 10.6914 9.55859 11.6758 9.51172V11.7617H12.9648V9.43555C13.8965 9.36523 14.8398 9.25977 15.7539 9.10156L15.6602 8.17578C15.3086 8.22266 14.9453 8.26953 14.5762 8.30469C14.793 6.96289 14.793 5.97852 14.793 5.42188V5.02344H9.74219V6.06641H13.4863C13.4688 6.64062 13.4219 7.42578 13.2578 8.41016C11.6699 8.50391 10.0703 8.52148 8.78125 8.52734ZM10.293 14.832H18.0508V13.7773H11.5938V11.5977H10.293V14.832ZM23.0195 6.35938V6.24219H25.2227V5.1875H19.4688V6.24219H21.707V6.37109C21.707 7.77734 20.8105 9.1543 19.1055 9.71094L19.7617 10.7422C21.0391 10.3145 21.9297 9.42969 22.3984 8.31641C22.8613 9.27148 23.7051 10.0273 24.8945 10.4023L25.5156 9.38281C23.8574 8.87305 23.0195 7.6543 23.0195 6.35938ZM20.5469 13.0039C20.5469 14.2812 21.918 15.0312 24.1328 15.0312C26.3301 15.0312 27.6777 14.2812 27.6836 13.0039C27.6777 11.7383 26.3301 11 24.1328 11C21.918 11 20.5469 11.7383 20.5469 13.0039ZM21.8477 13.0039C21.8477 12.3594 22.6797 12.0195 24.1328 12.0195C25.5801 12.0195 26.3945 12.3594 26.3945 13.0039C26.3945 13.6602 25.5801 14.0059 24.1328 14.0117C22.6797 14.0059 21.8477 13.6602 21.8477 13.0039ZM26.2773 10.7656H27.5781V8.05859H29.0547V6.99219H27.5781V4.44922H26.2773V10.7656Z" fill="white"/>
</svg>
