<svg width="24" height="24" viewBox="0 0 24 24" fill="none" xmlns="http://www.w3.org/2000/svg">
<mask id="mask0_220_2106" style="mask-type:alpha" maskUnits="userSpaceOnUse" x="0" y="0" width="24" height="24">
<rect width="24" height="24" fill="#D9D9D9"/>
</mask>
<g mask="url(#mask0_220_2106)">
<path d="M5.3 18.8214C4.8 18.8214 4.375 18.6589 4.025 18.3339C3.675 18.0089 3.5 17.6143 3.5 17.15V4.70714C3.5 4.24286 3.675 3.84821 4.025 3.52321C4.375 3.19821 4.8 3.03571 5.3 3.03571H6.7V1.0625H8.225V3.03571H15.8V1.0625H17.3V3.03571H18.7C19.2 3.03571 19.625 3.19821 19.975 3.52321C20.325 3.84821 20.5 4.24286 20.5 4.70714V17.15C20.5 17.6143 20.325 18.0089 19.975 18.3339C19.625 18.6589 19.2 18.8214 18.7 18.8214H5.3ZM5.3 17.4286H18.7C18.7667 17.4286 18.8333 17.3976 18.9 17.3357C18.9667 17.2738 19 17.2119 19 17.15V8.42143H5V17.15C5 17.2119 5.03333 17.2738 5.1 17.3357C5.16667 17.3976 5.23333 17.4286 5.3 17.4286ZM5 7.02857H19V4.70714C19 4.64524 18.9667 4.58333 18.9 4.52143C18.8333 4.45952 18.7667 4.42857 18.7 4.42857H5.3C5.23333 4.42857 5.16667 4.45952 5.1 4.52143C5.03333 4.58333 5 4.64524 5 4.70714V7.02857ZM12 11.9268C11.75 11.9268 11.5417 11.8454 11.375 11.6826C11.2083 11.5204 11.125 11.331 11.125 11.1143C11.125 10.8821 11.2083 10.6847 11.375 10.5219C11.5417 10.3597 11.75 10.2786 12 10.2786C12.25 10.2786 12.4583 10.3597 12.625 10.5219C12.7917 10.6847 12.875 10.8821 12.875 11.1143C12.875 11.331 12.7917 11.5204 12.625 11.6826C12.4583 11.8454 12.25 11.9268 12 11.9268ZM8 11.9268C7.75 11.9268 7.54167 11.8454 7.375 11.6826C7.20833 11.5204 7.125 11.331 7.125 11.1143C7.125 10.8821 7.20833 10.6847 7.375 10.5219C7.54167 10.3597 7.75 10.2786 8 10.2786C8.25 10.2786 8.45833 10.3597 8.625 10.5219C8.79167 10.6847 8.875 10.8821 8.875 11.1143C8.875 11.331 8.79167 11.5204 8.625 11.6826C8.45833 11.8454 8.25 11.9268 8 11.9268ZM16 11.9268C15.75 11.9268 15.5417 11.8454 15.375 11.6826C15.2083 11.5204 15.125 11.331 15.125 11.1143C15.125 10.8821 15.2083 10.6847 15.375 10.5219C15.5417 10.3597 15.75 10.2786 16 10.2786C16.25 10.2786 16.4583 10.3597 16.625 10.5219C16.7917 10.6847 16.875 10.8821 16.875 11.1143C16.875 11.331 16.7917 11.5204 16.625 11.6826C16.4583 11.8454 16.25 11.9268 16 11.9268ZM12 15.5714C11.75 15.5714 11.5417 15.4903 11.375 15.3281C11.2083 15.1653 11.125 14.9756 11.125 14.7589C11.125 14.5268 11.2083 14.3296 11.375 14.1674C11.5417 14.0046 11.75 13.9232 12 13.9232C12.25 13.9232 12.4583 14.0046 12.625 14.1674C12.7917 14.3296 12.875 14.5268 12.875 14.7589C12.875 14.9756 12.7917 15.1653 12.625 15.3281C12.4583 15.4903 12.25 15.5714 12 15.5714ZM8 15.5714C7.75 15.5714 7.54167 15.4903 7.375 15.3281C7.20833 15.1653 7.125 14.9756 7.125 14.7589C7.125 14.5268 7.20833 14.3296 7.375 14.1674C7.54167 14.0046 7.75 13.9232 8 13.9232C8.25 13.9232 8.45833 14.0046 8.625 14.1674C8.79167 14.3296 8.875 14.5268 8.875 14.7589C8.875 14.9756 8.79167 15.1653 8.625 15.3281C8.45833 15.4903 8.25 15.5714 8 15.5714ZM16 15.5714C15.75 15.5714 15.5417 15.4903 15.375 15.3281C15.2083 15.1653 15.125 14.9756 15.125 14.7589C15.125 14.5268 15.2083 14.3296 15.375 14.1674C15.5417 14.0046 15.75 13.9232 16 13.9232C16.25 13.9232 16.4583 14.0046 16.625 14.1674C16.7917 14.3296 16.875 14.5268 16.875 14.7589C16.875 14.9756 16.7917 15.1653 16.625 15.3281C16.4583 15.4903 16.25 15.5714 16 15.5714Z" fill="#424242"/>
</g>
</svg>
