<svg width="25" height="24" viewBox="0 0 25 24" fill="none" xmlns="http://www.w3.org/2000/svg">
<mask id="mask0_248_3354" style="mask-type:alpha" maskUnits="userSpaceOnUse" x="0" y="0" width="25" height="24">
<rect x="0.5" width="24" height="24" fill="#D9D9D9"/>
</mask>
<g mask="url(#mask0_248_3354)">
<path d="M20.5585 11.8267C20.1167 11.8267 19.7585 11.4685 19.7585 11.0267C19.7585 10.5848 20.1167 10.2267 20.5585 10.2267H21.7C22.1418 10.2267 22.5 10.5848 22.5 11.0267C22.5 11.4685 22.1418 11.8267 21.7 11.8267H20.5585ZM20.3557 18.4163C20.1067 18.7462 19.6463 18.8302 19.2968 18.6095L18.6653 18.2106C18.2712 17.9617 18.1766 17.4278 18.4612 17.0586C18.7087 16.7374 19.159 16.6554 19.5039 16.8686L20.1392 17.2613C20.5374 17.5075 20.6377 18.0426 20.3557 18.4163ZM19.469 5.13899C19.1173 5.36111 18.6538 5.27339 18.4076 4.93813C18.1357 4.56794 18.2347 4.04489 18.623 3.79963L19.2647 3.39434C19.6164 3.17222 20.0799 3.25995 20.3261 3.5952C20.598 3.96539 20.499 4.48844 20.1107 4.7337L19.469 5.13899ZM6.95039 21C6.67425 21 6.45039 20.7761 6.45039 20.5V14.84H4.3799C3.8577 14.84 3.41384 14.6533 3.0483 14.28C2.68277 13.9067 2.5 13.4533 2.5 12.92V9.13333C2.5 8.6 2.68277 8.14667 3.0483 7.77333C3.41384 7.4 3.8577 7.21333 4.3799 7.21333H9.47128L15.4938 4.65538C15.8236 4.51533 16.1893 4.75734 16.1893 5.11559V16.9377C16.1893 17.296 15.8236 17.538 15.4938 17.398L9.47128 14.84H8.01697V20.5C8.01697 20.7761 7.79311 21 7.51697 21H6.95039ZM17.3471 13.4654C17.1203 13.8397 16.6253 13.6445 16.6253 13.207V8.84637C16.6253 8.40882 17.1203 8.21368 17.3471 8.58789C17.4511 8.75958 17.5458 8.9414 17.6311 9.13333C17.8831 9.70222 18.0091 10.3333 18.0091 11.0267C18.0091 11.72 17.8831 12.3511 17.6311 12.92C17.5458 13.1119 17.4511 13.2937 17.3471 13.4654ZM4.3799 8.81333C4.31027 8.81333 4.24064 8.84889 4.17102 8.92C4.10139 8.99111 4.06658 9.06222 4.06658 9.13333V12.92C4.06658 12.9911 4.10139 13.0622 4.17102 13.1333C4.24064 13.2044 4.31027 13.24 4.3799 13.24H9.88903L14.6227 14.84V7.21333L9.88903 8.81333H4.3799Z" fill="#FEA100"/>
</g>
</svg>
