<svg width="24" height="24" viewBox="0 0 24 24" fill="none" xmlns="http://www.w3.org/2000/svg">
<path d="M22 20.8773C22 21.3102 21.4873 21.5386 21.1655 21.249L18 18.4H4C3.45 18.4 2.97933 18.2239 2.588 17.8717C2.196 17.5189 2 17.095 2 16.6V5.8C2 5.305 2.196 4.8811 2.588 4.5283C2.97933 4.1761 3.45 4 4 4H20C20.55 4 21.021 4.1761 21.413 4.5283C21.8043 4.8811 22 5.305 22 5.8V20.8773ZM4 5.8V16.6H18.6331C18.7567 16.6 18.8758 16.6457 18.9676 16.7284L19.6662 17.3571C19.7949 17.4729 20 17.3816 20 17.2084V5.8H4Z" fill="#000"/>
</svg>
