<svg width="48" height="48" viewBox="0 0 48 48" fill="none" xmlns="http://www.w3.org/2000/svg">
<path d="M43 20L38 37L33.0841 40H20.1657L10 37C10 37 6.08083 23.8449 5.23141 20.9295L5.05148 20.3514C4.94861 19.9837 4.99988 19.5897 5.20561 19.2484L8 18L15 21L22 11H26L32 21L40 18L43 20Z" fill="#E0E0E0"/>
<path d="M43 20L38 37L33.0751 39.737H24V11.3481L26 11L32 21L40 18L43 20Z" fill="#CECECE"/>
<path d="M10 37V40.75C10 41.4499 10.5598 42 11.2727 42H36.7273C37.4402 42 38 41.4499 38 40.75V37H10Z" fill="#D5D4D4"/>
<path d="M24 6C21.7865 6 20 7.78646 20 10C20 12.2667 21.8667 14 24 14C26.2135 14 28 12.1868 28 10C28 7.78646 26.2135 6 24 6Z" fill="#BDBDBD"/>
<path d="M42 22C40.8726 22 39.8892 21.5611 39.1642 20.8358C38.3944 20.0247 38 19.0535 38 18C38 15.7944 39.7944 14 42 14C44.2056 14 46 15.7944 46 18C46 20.2056 44.2056 22 42 22Z" fill="#9E9E9E"/>
<path d="M6 22C3.79444 22 2 20.2056 2 18C2 15.7944 3.79444 14 6 14C8.20556 14 10 15.7944 10 18C10 20.2313 8.20382 22 6 22Z" fill="#BDBDBD"/>
<path d="M24 14V6C26.2135 6 28 7.78646 28 10C28 12.1868 26.2135 14 24 14Z" fill="#9E9E9E"/>
<path d="M38 37V40.75C38 41.4499 37.4402 42 36.7273 42H24V37H38Z" fill="#BDBCBC"/>
<path d="M30.9748 25.4624C30.806 24.9281 30.3563 24.5626 29.822 24.4784L26.6718 24.0283L25.2656 21.2437C25.0125 20.7939 24.5061 20.5405 24 20.5405C23.4939 20.5405 22.9874 20.7939 22.7343 21.2437L21.3281 24.0283L18.1779 24.4784C17.6436 24.5626 17.1939 24.9281 17.0251 25.4624C16.8845 25.9689 17.0251 26.5314 17.4188 26.8969L19.6688 29.0626L19.1345 32.1003C19.0499 32.6064 19.2469 33.1407 19.697 33.4784C20.1189 33.7878 20.7096 33.8157 21.1593 33.5908L24 32.1282L26.8407 33.5908C27.3186 33.8439 27.8811 33.7875 28.3033 33.4784C28.753 33.1407 28.95 32.6064 28.8654 32.1L28.3311 29.0626L30.5811 26.8969C30.9748 26.5314 31.1158 25.9689 30.9748 25.4624Z" fill="#BDBDBD"/>
<path d="M26.8407 33.5908L24 32.1282V20.5405C24.5061 20.5405 25.0126 20.7939 25.2656 21.2437L26.6719 24.0283L29.822 24.4784C30.3563 24.5626 30.806 24.9281 30.9749 25.4624C31.1155 25.9689 30.9749 26.5314 30.5812 26.8969L28.3312 29.0626L28.8655 32.1003C28.9501 32.6064 28.7531 33.1407 28.303 33.4784C27.8811 33.7875 27.3186 33.8439 26.8407 33.5908Z" fill="#9E9E9E"/>
</svg>
