<svg width="24" height="24" viewBox="0 0 24 24" fill="none" xmlns="http://www.w3.org/2000/svg">
<path d="M21.6205 16.1026H20.3282C20.2266 16.1052 20.1301 16.1475 20.0592 16.2203C19.9883 16.2931 19.9487 16.3907 19.9487 16.4923V19.9487H4.05128V16.4923C4.05132 16.3907 4.01167 16.2931 3.94078 16.2203C3.86989 16.1475 3.77337 16.1052 3.6718 16.1026H2.37949C2.27791 16.1052 2.18139 16.1475 2.1105 16.2203C2.03962 16.2931 1.99996 16.3907 2 16.4923V19.6923C2 20.3043 2.24313 20.8913 2.67591 21.3241C3.10868 21.7569 3.69565 22 4.30769 22H19.6923C20.3043 22 20.8913 21.7569 21.3241 21.3241C21.7569 20.8913 22 20.3043 22 19.6923V16.4923C22 16.3907 21.9604 16.2931 21.8895 16.2203C21.8186 16.1475 21.7221 16.1052 21.6205 16.1026Z" fill="#424242"/>
<path d="M11.7231 16.4923C11.7593 16.5289 11.8024 16.5579 11.85 16.5778C11.8975 16.5976 11.9485 16.6078 12 16.6078C12.0515 16.6078 12.1025 16.5976 12.15 16.5778C12.1976 16.5579 12.2407 16.5289 12.2769 16.4923L17.7846 10.9744C17.8554 10.9016 17.895 10.8041 17.895 10.7026C17.895 10.601 17.8554 10.5035 17.7846 10.4308L16.8821 9.49744C16.8528 9.45223 16.8111 9.41652 16.7619 9.39466C16.7127 9.3728 16.6583 9.36575 16.6051 9.37436C16.5554 9.37423 16.5061 9.38415 16.4603 9.40354C16.4144 9.42293 16.373 9.45138 16.3385 9.48718L13.0256 12.8103V2.37949C13.023 2.27791 12.9807 2.18139 12.9079 2.1105C12.8351 2.03962 12.7375 1.99996 12.6359 2H11.3641C11.2625 1.99996 11.1649 2.03962 11.0921 2.1105C11.0193 2.18139 10.977 2.27791 10.9744 2.37949V12.8103L7.66154 9.49744C7.62698 9.46163 7.58555 9.43318 7.53973 9.4138C7.4939 9.39441 7.44463 9.38448 7.39487 9.38462C7.34283 9.3856 7.29152 9.397 7.24396 9.41814C7.1964 9.43928 7.15355 9.46973 7.11795 9.50769L6.21538 10.441C6.1469 10.515 6.10886 10.612 6.10886 10.7128C6.10886 10.8136 6.1469 10.9107 6.21538 10.9846L11.7231 16.4923Z" fill="black"/>
</svg>
