<svg width="24" height="24" viewBox="0 0 24 24" fill="none" xmlns="http://www.w3.org/2000/svg">
<mask id="mask0_248_3374" style="mask-type:alpha" maskUnits="userSpaceOnUse" x="0" y="0" width="24" height="24">
<rect width="24" height="24" fill="#D9D9D9"/>
</mask>
<g mask="url(#mask0_248_3374)">
<path d="M3.55475 15.4141C3.24028 15.7308 2.69995 15.5081 2.69995 15.0618V3.375C2.69995 3.125 2.78328 2.91667 2.94995 2.75C3.11662 2.58333 3.32495 2.5 3.57495 2.5H16.05C16.3 2.5 16.5083 2.58333 16.675 2.75C16.8416 2.91667 16.925 3.125 16.925 3.375V11.85C16.925 12.1 16.8416 12.3083 16.675 12.475C16.5083 12.6417 16.3 12.725 16.05 12.725H6.22495L3.55475 15.4141ZM7.12495 17.125C6.87495 17.125 6.66262 17.0377 6.48795 16.863C6.31262 16.6877 6.22495 16.475 6.22495 16.225V14.725H18.6L18.9249 15.05V6H20.4249C20.6749 6 20.8833 6.08333 21.0499 6.25C21.2166 6.41667 21.2999 6.625 21.2999 6.875V19.4429C21.2999 19.8883 20.7614 20.1114 20.4464 19.7964L17.775 17.125H7.12495ZM15.425 4H4.19995V12.65L5.59995 11.225H15.425V4Z" fill="#BDBDBD"/>
</g>
</svg>
