<svg width="24" height="24" viewBox="0 0 24 24" fill="none" xmlns="http://www.w3.org/2000/svg">
<path fill-rule="evenodd" clip-rule="evenodd" d="M21 12.2043C21.0008 11.5868 20.9449 10.9705 20.833 10.3628H12.1813V13.8441H17.124C17.0214 14.3942 16.8062 14.9182 16.4912 15.3845C16.1763 15.8508 15.7682 16.2497 15.2916 16.5572V18.8159H18.2591C19.9955 17.2491 20.9974 14.9412 20.9974 12.2026L21 12.2043Z" fill="#3E82F1"/>
<path fill-rule="evenodd" clip-rule="evenodd" d="M12.1839 20.9993C14.6635 20.9993 16.7425 20.1939 18.2617 18.8195L15.2942 16.5608C14.4714 17.1009 13.4193 17.4205 12.1839 17.4205C9.79171 17.4205 7.76711 15.8367 7.04561 13.7095H3.97681V16.0419C4.74131 17.5327 5.91361 18.7858 7.36291 19.6612C8.81221 20.5367 10.4814 21 12.1839 20.9993Z" fill="#32A753"/>
<path fill-rule="evenodd" clip-rule="evenodd" d="M7.0455 13.7094C6.6614 12.6007 6.6614 11.3987 7.0455 10.29V7.95752H3.9767C3.3345 9.21202 3 10.5961 3 11.9997C3 13.4032 3.3345 14.7873 3.9767 16.0418L7.0455 13.7094Z" fill="#F9BB00"/>
<path fill-rule="evenodd" clip-rule="evenodd" d="M12.1839 6.5788C13.5327 6.5788 14.743 7.0333 15.6947 7.9252L18.3283 5.3435C16.7381 3.8911 14.6591 3 12.1856 3C10.4831 2.9994 8.81391 3.4627 7.36461 4.3381C5.91531 5.2135 4.74302 6.4667 3.97852 7.9574L7.04732 10.2899C7.76892 8.1626 9.79342 6.5788 12.1856 6.5788H12.1839Z" fill="#E74133"/>
</svg>
