<svg width="38" height="20" viewBox="0 0 38 20" fill="none" xmlns="http://www.w3.org/2000/svg">
<rect x="0.5" width="37" height="20" rx="2" fill="#83D46F"/>
<path d="M12.707 6.32422V5.10547H11.3945V6.3125C11.3887 7.85938 10.5215 9.32422 8.81641 9.89844L9.50781 10.9297C10.75 10.4668 11.6172 9.55273 12.0684 8.38672C12.5195 9.42969 13.334 10.2559 14.4766 10.6836L15.1914 9.66406C13.5449 9.10156 12.7012 7.73047 12.707 6.32422ZM10.7383 14.832H17.957V13.7773H12.0625V11.4688H10.7383V14.832ZM14.3125 7.85938H16.4219V12.3242H17.7227V4.46094H16.4219V6.79297H14.3125V7.85938ZM23.7812 5.1875H19.6211V10.4375H20.3242C21.9707 10.4434 22.9902 10.4023 24.2383 10.168L24.0977 9.11328C23.0664 9.30664 22.1641 9.35938 20.875 9.37109V8.25781H23.6758V7.26172H20.875V6.23047H23.7812V5.1875ZM21.0273 12.4297H26.9805V15.043H28.2812V11.375H21.0273V12.4297ZM24.7188 10.8242H25.9375V8.15234H27.0391V10.9062H28.2812V4.46094H27.0391V7.10938H25.9375V4.66016H24.7188V10.8242Z" fill="white"/>
</svg>
