<svg width="24" height="24" viewBox="0 0 24 24" fill="none" xmlns="http://www.w3.org/2000/svg">
<path fill-rule="evenodd" clip-rule="evenodd" d="M15.828 21C16.5538 21 17.2225 20.597 17.575 19.9472L21.7485 12.2527C21.9134 11.9486 22 11.6065 22 11.2587V9.7422C22 8.61174 21.1053 7.69532 20.0016 7.69532H14.0909C14.0444 7.69532 14.0066 7.65669 14.0066 7.60903V3.23338C14.0066 2.29645 13.4382 1.45819 12.581 1.1311C11.7799 0.825417 11.6158 1.0732 11.2153 1.6779C11.1521 1.77338 11.0829 1.87776 11.0045 1.99025L7 8H3C2.44772 8 2 8.44772 2 9V20C2 20.5523 2.44772 21 3 21H15.828ZM4 19V10H6V19H4Z" fill="#FEA100"/>
</svg>
