<svg width="24" height="24" viewBox="0 0 24 24" fill="none" xmlns="http://www.w3.org/2000/svg">
<path fill-rule="evenodd" clip-rule="evenodd" d="M17.5723 19.9472C17.2196 20.597 16.5505 21 15.8243 21H3.11111C2.55849 21 2 20.4412 2 19.8889V9C2 8.44772 2.44738 8 3 8H6L10.9978 1.99025C11.0763 1.87776 11.1455 1.77338 11.2087 1.6779C11.6095 1.0732 11.7737 0.825417 12.5753 1.1311C13.433 1.45819 14.0018 2.29645 14.0018 3.23338V7.60903C14.0018 7.65669 14.0395 7.69532 14.0861 7.69532H20.0004C21.1047 7.69532 22 8.61174 22 9.7422V11.2587C22 11.6065 21.9134 11.9486 21.7484 12.2527L17.5723 19.9472ZM15.8132 18.9936C15.8117 18.9964 15.8092 19 15.8092 19H8V9L11.6456 4.53122C11.7645 4.38547 12.0006 4.46955 12.0006 4.65765V7.60903C12.0006 8.71584 12.8894 9.69532 14.0861 9.69532H19.9696C19.9795 9.69532 19.9894 9.69977 19.9932 9.70884C19.9932 9.70884 19.9988 9.72524 19.9988 9.7422V11.2587C19.9988 11.2754 19.9945 11.2895 19.9893 11.2991L15.8132 18.9936ZM4 19V10H6V19H4Z" fill="#424242"/>
</svg>
