<svg width="289" height="37" viewBox="0 0 289 37" fill="none" xmlns="http://www.w3.org/2000/svg">
<path d="M6.05554 36.4723C4.52317 36.4723 3.05355 35.9135 1.97 34.9189C0.886453 33.9242 0.277832 32.5752 0.277832 31.1686V6.38712C0.277832 4.98049 0.886453 3.63145 1.97 2.63682C3.05355 1.64218 4.52317 1.08337 6.05554 1.08337C7.58791 1.08337 9.05753 1.64218 10.1411 2.63682C11.2246 3.63145 11.8334 4.98049 11.8334 6.38712V31.1686C11.8334 32.5752 11.2246 33.9242 10.1411 34.9189C9.05753 35.9135 7.58791 36.4723 6.05554 36.4723Z" fill="white"/>
<path d="M53 36.4723C51.4676 36.4723 49.998 35.9135 48.9145 34.9189C47.8309 33.9242 47.2223 32.5752 47.2223 31.1686V6.38712C47.2223 4.98049 47.8309 3.63145 48.9145 2.63682C49.998 1.64218 51.4676 1.08337 53 1.08337C54.5324 1.08337 56.002 1.64218 57.0855 2.63682C58.1691 3.63145 58.7778 4.98049 58.7778 6.38712V31.1686C58.7778 32.5752 58.1691 33.9242 57.0855 34.9189C56.002 35.9135 54.5324 36.4723 53 36.4723Z" fill="white"/>
<path d="M99.4078 36.4722C98.0191 36.4722 96.6873 35.9002 95.7053 34.8818C94.7234 33.8634 94.1717 32.4822 94.1717 31.042V5.66931C94.1406 4.93679 94.2528 4.20527 94.5017 3.51896C94.7505 2.83265 95.1308 2.20572 95.6196 1.67596C96.1084 1.1462 96.6957 0.724575 97.3459 0.43654C97.9961 0.148506 98.6957 2.09808e-05 99.4027 2.09808e-05C100.11 2.09808e-05 100.809 0.148506 101.46 0.43654C102.11 0.724575 102.697 1.1462 103.186 1.67596C103.675 2.20572 104.055 2.83265 104.304 3.51896C104.553 4.20527 104.665 4.93679 104.634 5.66931V31.042C104.635 31.7546 104.501 32.4605 104.239 33.1193C103.977 33.778 103.592 34.3768 103.107 34.8812C102.621 35.3855 102.045 35.7857 101.41 36.0587C100.775 36.3317 100.095 36.4722 99.4078 36.4722Z" fill="white"/>
<path d="M145.083 36.4723C143.743 36.4723 142.457 35.9135 141.508 34.9189C140.56 33.9242 140.028 32.5752 140.028 31.1686V6.38712C140.028 4.98049 140.56 3.63146 141.508 2.63682C142.457 1.64218 143.743 1.08337 145.083 1.08337C146.424 1.08337 147.71 1.64218 148.658 2.63682C149.606 3.63146 150.139 4.98049 150.139 6.38712V31.1686C150.139 32.5752 149.606 33.9242 148.658 34.9189C147.71 35.9135 146.424 36.4723 145.083 36.4723Z" fill="white"/>
<path d="M191.3 36.4722C189.77 36.4695 188.303 35.8961 187.222 34.8781C186.141 33.86 185.533 32.4804 185.533 31.042V5.66931C185.499 4.93679 185.623 4.20527 185.898 3.51896C186.172 2.83265 186.592 2.20572 187.131 1.67596C187.671 1.1462 188.318 0.724575 189.036 0.43654C189.753 0.148506 190.526 2.09808e-05 191.306 2.09808e-05C192.086 2.09808e-05 192.858 0.148506 193.575 0.43654C194.293 0.724575 194.941 1.1462 195.48 1.67596C196.019 2.20572 196.439 2.83265 196.714 3.51896C196.988 4.20527 197.112 4.93679 197.078 5.66931V31.042C197.078 32.4822 196.469 33.8634 195.386 34.8818C194.302 35.9002 192.832 36.4722 191.3 36.4722Z" fill="white"/>
<path d="M237.708 36.4723C236.32 36.4723 234.988 35.9135 234.006 34.9189C233.024 33.9242 232.472 32.5752 232.472 31.1686V6.38712C232.472 4.98049 233.024 3.63146 234.006 2.63682C234.988 1.64218 236.32 1.08337 237.708 1.08337C239.097 1.08337 240.429 1.64218 241.411 2.63682C242.393 3.63146 242.944 4.98049 242.944 6.38712V31.1686C242.942 32.5744 242.389 33.9218 241.408 34.9159C240.427 35.9099 239.096 36.4695 237.708 36.4723Z" fill="white"/>
<path d="M283.57 36.4723C282.181 36.4723 280.849 35.9135 279.867 34.9189C278.885 33.9242 278.333 32.5752 278.333 31.1686V6.38712C278.333 4.98049 278.885 3.63146 279.867 2.63682C280.849 1.64218 282.181 1.08337 283.57 1.08337C284.958 1.08337 286.29 1.64218 287.272 2.63682C288.254 3.63146 288.806 4.98049 288.806 6.38712V31.1686C288.803 32.5744 288.25 33.9218 287.269 34.9159C286.288 35.9099 284.957 36.4695 283.57 36.4723Z" fill="white"/>
</svg>
