<svg width="230" height="114" viewBox="0 0 230 114" fill="none" xmlns="http://www.w3.org/2000/svg">
<path d="M47.898 14.3536H48.1506L51.5073 27.4093H58.1124L61.433 14.3536H61.7217L62.227 27.4093H71.2865L69.6623 0.508759H58.329L54.9723 14.2101H54.6474L51.2908 0.508759H39.9935L38.3333 27.4093H47.3927L47.898 14.3536Z" fill="url(#paint0_linear_348_31789)"/>
<g clip-path="url(#clip0_348_31789)">
<path d="M105.473 7.72778C104.959 4.7894 102.836 3.07168 100.396 2.52962C97.2558 1.83291 93.8597 3.17823 91.8198 5.77317C91.7748 5.69403 91.7251 5.62058 91.678 5.54404C91.6755 5.513 91.496 5.05887 91.3201 5.01439C88.1619 0.767422 81.4322 1.29448 79.2366 6.42798C77.7315 9.94824 79.5769 14.2216 81.4969 17.102C83.9853 20.8359 87.7228 23.6476 91.4546 25.6963C91.6289 25.7915 91.782 25.7558 91.8989 25.6627C91.9987 25.7165 92.1203 25.732 92.2548 25.6756C92.6768 25.5019 93.6678 24.8998 94.9268 23.9822C95.6131 23.7484 99.6398 20.1025 99.8999 19.6996C103.233 16.3081 106.205 11.9251 105.473 7.72778ZM96.1904 6.42746C96.1205 6.64625 96.0538 6.86659 95.9969 7.09572C95.6974 8.30035 95.4264 9.50601 95.1471 10.7081C94.8823 11.622 94.6107 12.5313 94.2983 13.423C94.1675 13.798 94.0314 14.1699 93.8923 14.5407C93.8933 14.5361 93.8944 14.5319 93.8954 14.5273C94.4369 12.2018 95.4652 9.60791 95.9136 7.07348C96.0062 6.8578 96.0993 6.64263 96.1904 6.42746ZM92.4353 10.9439C92.6422 10.3315 92.8547 9.7217 93.0709 9.11188C93.4102 8.15811 93.6782 7.11021 94.1597 6.23919C93.5385 8.45138 92.8563 10.6532 92.186 12.8494C92.2858 12.2116 92.3691 11.5744 92.4353 10.9439ZM81.6981 5.63041C81.2776 6.54643 80.9311 7.5364 80.569 8.40173C80.7826 7.4583 81.1395 6.43264 81.6981 5.63041ZM81.3888 9.68239C80.6693 11.2129 80.8954 9.97617 81.2083 9.35395C81.9365 7.90674 82.5257 5.42973 83.6734 4.29803C82.9462 5.51042 82.4553 7.05072 82.0079 8.24087C81.8228 8.73431 81.6117 9.20912 81.3888 9.68239ZM84.5806 4.64095C84.2817 6.52781 83.1784 8.58948 82.3989 10.2824C82.5283 9.88049 82.641 9.46619 82.7367 9.03533C83.2994 7.5902 83.7401 5.86265 84.5806 4.64095ZM82.1507 14.0773C82.1698 13.9226 82.1936 13.7452 82.2252 13.5264C82.415 12.8277 82.6483 12.1465 82.925 11.4849C83.3822 10.3062 83.8948 9.14861 84.3691 7.97656C84.2625 8.34173 84.1539 8.70741 84.0505 9.07413C83.5601 10.8089 83.1588 12.657 82.2831 14.2237C82.2448 14.1631 82.2008 14.114 82.1507 14.0773ZM85.2758 10.6248C84.7585 12.3347 84.2925 14.8495 83.4536 16.6143C83.3988 16.3981 83.3486 16.1803 83.2989 15.9631C83.3212 15.9222 83.3434 15.8917 83.3656 15.8478C84.2072 14.1419 84.3117 12.1589 85.0363 10.3931C85.3859 9.54015 85.7015 8.68517 86.0061 7.82553C85.7811 8.76327 85.5546 9.70153 85.2758 10.6248ZM88.0962 3.99648C87.5738 5.6842 87.1192 7.39468 86.634 9.09482C87.0628 7.37141 87.4626 5.63817 88.0962 3.99648ZM86.662 13.122C87.3804 10.6894 88.0771 8.21294 89.2176 5.99196C89.0919 7.58761 88.509 9.24223 87.8862 10.7499C87.5299 11.4099 87.1781 12.0735 86.8368 12.7434C86.7742 12.8665 86.7204 12.9958 86.662 13.122ZM87.49 19.0184C87.3881 19.2253 87.2811 19.4285 87.1699 19.6297C87.4006 18.4794 87.6193 17.3286 87.8345 16.1741C88.0585 14.9742 87.9788 13.4002 88.5183 12.3141C88.5819 12.1858 88.5881 12.0663 88.5591 11.9618C88.8002 11.3029 89.0562 10.6512 89.3324 10.0093C89.6334 9.46256 89.9345 8.91482 90.237 8.36759C89.5657 10.8405 88.6993 13.243 88.0052 15.7097C87.6969 16.8062 87.5852 17.8846 87.49 19.0184ZM89.1803 22.6447C89.0603 22.5723 88.944 22.4936 88.8297 22.4124C88.9253 22.3959 89.0174 22.3359 89.0924 22.2123C89.4296 21.6547 89.7395 21.0532 90.0265 20.4237C89.7814 21.1825 89.5041 21.9247 89.1803 22.6447ZM89.5377 19.1601C89.5388 19.1523 89.5409 19.1456 89.5419 19.1379C89.6893 18.677 89.8331 18.2146 89.9784 17.7532C90.0079 17.7424 90.0379 17.7351 90.0648 17.7181C89.9008 18.211 89.7265 18.6941 89.5377 19.1601ZM90.192 12.162C90.1145 12.3373 90.0462 12.5194 89.9722 12.6963C90.5391 10.7991 91.1318 8.90551 91.5761 6.94211C91.5937 6.94159 91.6124 6.94469 91.631 6.94107C91.6527 6.95866 91.6791 6.96797 91.7024 6.98142C91.2032 8.56828 90.7879 10.2322 90.4176 11.9111C90.3291 11.9556 90.2484 12.0332 90.192 12.162ZM91.9723 18.917C91.9005 19.2858 91.8451 19.6644 91.7934 20.0466C91.6811 20.3709 91.572 20.6968 91.468 21.0252C91.3315 21.4587 91.3263 22.0442 91.4355 22.5728C91.3734 22.9074 91.2999 23.2379 91.2079 23.5607C90.3777 21.5714 92.5563 15.2773 93.0311 13.9935C93.0425 13.9609 93.0554 13.9288 93.0673 13.8963C92.6665 15.5591 92.3008 17.2334 91.9723 18.917ZM93.3968 21.4023C93.1837 21.8874 93.0259 22.1543 92.9127 22.2635C93.0037 21.9614 93.0947 21.6594 93.1909 21.3604C94.078 18.618 94.8559 15.7971 95.6069 13.0051C95.7585 12.4423 95.8888 11.8698 96.0119 11.293C96.0321 11.2289 96.0548 11.1653 96.075 11.1011C96.3957 10.0682 96.8783 7.01814 97.7214 5.24766C97.1648 7.35848 96.8969 9.62239 96.2669 11.7053C95.5666 14.0168 94.9242 16.2072 94.4173 18.5824C94.2094 19.5578 93.794 20.5039 93.3968 21.4023ZM94.6107 22.1037C94.5673 22.1404 94.5352 22.1818 94.5083 22.2247C94.9071 21.5316 95.2831 20.8235 95.6348 20.0994C95.4538 20.869 95.19 21.6112 94.6107 22.1037ZM95.7336 17.5143C95.9985 16.1907 96.2229 14.923 96.5416 13.978C97.3133 11.6918 98.1155 9.30222 98.4677 6.88263C98.5267 6.37988 98.6006 5.88023 98.687 5.38266C98.7915 5.27197 98.8867 5.17784 98.9736 5.0956C98.7248 7.29848 97.6991 11.9354 97.5905 12.3187C97.0867 14.0995 96.451 15.8276 95.7336 17.5143ZM98.5117 15.103C98.5815 14.7093 98.6529 14.3168 98.7129 13.9159C99.0915 11.4017 99.6506 9.01723 100.272 6.56918C100.424 5.97178 100.654 5.04853 100.587 4.25872C101.55 5.6361 98.9632 13.6123 98.6544 14.6131C98.6074 14.7626 98.5603 14.9271 98.5117 15.103ZM100.54 14.0628C100.196 15.8964 99.8115 17.7553 98.7936 19.2889C99.4618 18.2818 99.7122 16.9288 100.026 15.7505C100.802 12.837 101.313 9.926 101.778 6.9328C101.847 6.49367 101.868 5.81868 101.788 5.1556C101.791 5.09663 101.795 5.03819 101.796 4.98026C101.88 5.1437 101.976 5.29421 102.098 5.44162C102.53 7.71692 100.811 12.6228 100.54 14.0628ZM104.297 11.1291C104.363 9.51688 104.16 7.79967 104.2 6.60694C104.749 7.91864 104.723 9.49205 104.297 11.1291Z" fill="url(#paint1_linear_348_31789)"/>
</g>
<path d="M122.547 14.3536H122.8L126.156 27.4094H132.762L136.082 14.3536H136.371L136.876 27.4094H145.936L144.311 0.508804H132.978L129.621 14.2102H129.297L125.94 0.508804H114.643L112.982 27.4094H122.042L122.547 14.3536Z" fill="url(#paint2_linear_348_31789)"/>
<path d="M153.333 0.508804V6.1672H156.291L154.988 11.269H158.298L160.058 5.48696V0.508804H153.333Z" fill="url(#paint3_linear_348_31789)"/>
<path d="M171.149 2.28526C173.303 1.10096 176.254 0.508804 180.002 0.508804C183.778 0.508804 187.233 1.03046 190.366 2.07378L189.191 8.96811C187.876 8.57334 186.576 8.29136 185.289 8.12218C184.002 7.95299 182.687 7.8684 181.345 7.8684C180.953 7.8684 180.464 7.8825 179.876 7.91069C179.317 7.93889 178.673 7.99529 177.946 8.07988V9.68715C179.485 9.68715 181.065 9.77174 182.687 9.94093C184.31 10.0819 185.778 10.4485 187.093 11.0406C188.436 11.6046 189.527 12.4646 190.366 13.6207C191.233 14.7486 191.667 16.2995 191.667 18.2733C191.667 19.655 191.513 20.8957 191.205 21.9954C190.897 23.0669 190.422 23.927 189.779 24.5755C189.107 25.2241 188.408 25.7457 187.681 26.1405C186.981 26.5353 186.058 26.8172 184.911 26.9864C184.016 27.1274 183.051 27.2261 182.016 27.2825C181.009 27.3671 179.918 27.4094 178.743 27.4094C174.631 27.4094 170.869 26.9159 167.456 25.929L168.715 18.7386C170.142 19.1616 171.61 19.4858 173.121 19.7114C174.631 19.937 176.212 20.0498 177.862 20.0498C178.617 20.0498 179.331 20.0357 180.002 20.0075C180.701 19.9793 181.373 19.9229 182.016 19.8383V18.231C179.331 18.231 177.079 18.0619 175.261 17.7235C173.47 17.3569 172.016 16.8071 170.897 16.0739C169.806 15.3408 169.023 14.3821 168.547 13.1978C168.1 12.0135 167.876 10.6036 167.876 8.96811C167.876 5.69718 168.967 3.46956 171.149 2.28526Z" fill="url(#paint4_linear_348_31789)"/>
<path d="M55.1462 113.491H36.4329L21.2801 91.5476C21.0041 91.1626 20.7833 90.5851 20.6177 89.8152C20.4521 89.0452 20.3417 88.0278 20.2865 86.7628H19.8725V113.491H0V51.6199H18.7133L33.8661 73.5636C34.1421 73.9486 34.3629 74.5261 34.5285 75.296C34.6941 76.066 34.8045 77.0834 34.8597 78.3483H35.2737V51.6199H55.1462V113.491Z" fill="url(#paint5_linear_348_31789)"/>
<path d="M68.5964 87.5994C68.5964 78.8603 70.632 72.3737 74.703 68.1399C78.774 63.8517 85.3691 61.7076 94.4882 61.7076C103.607 61.7076 110.202 63.8517 114.273 68.1399C118.345 72.3737 120.38 78.8603 120.38 87.5994C120.38 96.3386 118.345 102.852 114.273 107.14C110.202 111.374 103.607 113.491 94.4882 113.491C85.5862 113.491 79.0454 111.401 74.8658 107.222C70.6862 103.042 68.5964 96.5014 68.5964 87.5994ZM89.603 80.1087V99.2426H92.6156C95.0039 99.2426 96.7137 98.9983 97.7451 98.5098C98.8307 98.0213 99.3735 96.8814 99.3735 95.0902V75.9563H96.3609C93.9726 75.9563 92.2356 76.2005 91.15 76.6891C90.1187 77.1776 89.603 78.3175 89.603 80.1087Z" fill="url(#paint6_linear_348_31789)"/>
<path d="M138.887 76.2415H133.83V63.6351H138.887V55.8273L159.115 50.9474V63.6351H166.111V76.2415H159.115V98.4449C159.958 98.6076 160.885 98.7703 161.897 98.9329C162.908 99.0414 163.976 99.1227 165.1 99.1769L164.172 113.491C154.957 113.491 148.945 113.003 146.136 112.027C143.776 111.214 141.978 110.184 140.742 108.937C139.505 107.635 138.887 105.738 138.887 103.243V76.2415Z" fill="url(#paint7_linear_348_31789)"/>
<path d="M200.825 95.4158V98.8355C201.814 98.9441 202.803 99.0255 203.792 99.0798C204.781 99.134 205.77 99.1612 206.759 99.1612C212.912 99.1612 219.121 98.1841 225.385 96.23L227.692 110.56C220.275 112.514 212.967 113.491 205.77 113.491C196.539 113.491 189.863 111.374 185.743 107.14C181.622 102.852 179.561 96.3386 179.561 87.5994C179.561 78.8603 181.622 72.3737 185.743 68.1399C189.918 63.8517 196.594 61.7076 205.77 61.7076C210.385 61.7076 214.231 62.0062 217.308 62.6033C220.385 63.1461 222.857 64.096 224.725 65.453C226.648 66.7557 227.995 68.547 228.764 70.8268C229.588 73.0523 230 75.8748 230 79.2945C230 82.1171 229.506 84.5597 228.517 86.6224C227.582 88.6308 225.989 90.2863 223.736 91.5891C221.484 92.8918 218.489 93.8688 214.753 94.5202C211.017 95.1173 206.374 95.4158 200.825 95.4158ZM200.825 80.1087V84.0983H204.863C207.281 84.0983 209.011 83.8541 210.055 83.3656C211.154 82.877 211.704 81.7371 211.704 79.9459V75.9563H207.665C205.248 75.9563 203.49 76.2005 202.391 76.6891C201.347 77.1776 200.825 78.3175 200.825 80.1087Z" fill="url(#paint8_linear_348_31789)"/>
<defs>
<linearGradient id="paint0_linear_348_31789" x1="38.3333" y1="0.508759" x2="64.6892" y2="32.7948" gradientUnits="userSpaceOnUse">
<stop stop-color="#FEE082"/>
<stop offset="1" stop-color="#FE9000"/>
</linearGradient>
<linearGradient id="paint1_linear_348_31789" x1="78.6844" y1="2.16589" x2="102.069" y2="28.8354" gradientUnits="userSpaceOnUse">
<stop stop-color="#FEE082"/>
<stop offset="1" stop-color="#FE9000"/>
</linearGradient>
<linearGradient id="paint2_linear_348_31789" x1="112.982" y1="0.508804" x2="139.338" y2="32.7949" gradientUnits="userSpaceOnUse">
<stop stop-color="#FEE082"/>
<stop offset="1" stop-color="#FE9000"/>
</linearGradient>
<linearGradient id="paint3_linear_348_31789" x1="153.333" y1="0.508804" x2="163.005" y2="6.55388" gradientUnits="userSpaceOnUse">
<stop stop-color="#FEE082"/>
<stop offset="1" stop-color="#FE9000"/>
</linearGradient>
<linearGradient id="paint4_linear_348_31789" x1="167.456" y1="0.508804" x2="194.208" y2="24.5856" gradientUnits="userSpaceOnUse">
<stop stop-color="#FEE082"/>
<stop offset="1" stop-color="#FE9000"/>
</linearGradient>
<linearGradient id="paint5_linear_348_31789" x1="0" y1="51.6199" x2="61.464" y2="106.403" gradientUnits="userSpaceOnUse">
<stop stop-color="#FEE082"/>
<stop offset="1" stop-color="#FE9000"/>
</linearGradient>
<linearGradient id="paint6_linear_348_31789" x1="68.5964" y1="61.7076" x2="120.38" y2="113.491" gradientUnits="userSpaceOnUse">
<stop stop-color="#FEE082"/>
<stop offset="1" stop-color="#FE9000"/>
</linearGradient>
<linearGradient id="paint7_linear_348_31789" x1="133.83" y1="50.9474" x2="184.811" y2="77.26" gradientUnits="userSpaceOnUse">
<stop stop-color="#FEE082"/>
<stop offset="1" stop-color="#FE9000"/>
</linearGradient>
<linearGradient id="paint8_linear_348_31789" x1="179.561" y1="61.7076" x2="231.327" y2="112.129" gradientUnits="userSpaceOnUse">
<stop stop-color="#FEE082"/>
<stop offset="1" stop-color="#FE9000"/>
</linearGradient>
<clipPath id="clip0_348_31789">
<rect width="26.9006" height="26.9006" fill="white" transform="translate(78.6842 0.508804)"/>
</clipPath>
</defs>
</svg>
