<svg width="242" height="206" viewBox="0 0 242 206" fill="none" xmlns="http://www.w3.org/2000/svg">
<g filter="url(#filter0_d_3214_11824)">
<path d="M62.8492 102.096H30.3925L36.3516 4.84724H76.8705L88.9185 54.3786H90.087L102.122 4.84724H142.771L148.6 102.096H116.143L114.326 54.8968H113.287L101.382 102.096H77.6884L65.6535 54.8968H64.7447L62.8492 102.096Z" fill="white"/>
</g>
<g filter="url(#filter1_d_3214_11824)">
<path d="M67.2799 193.476H45.9545L28.6534 168.208C28.2776 167.596 28.0228 166.917 27.903 166.208C27.6826 165.052 27.557 163.879 27.5277 162.703H27.0489V193.476H4.40356V122.216H25.729L43.0041 147.497C43.3799 148.109 43.6348 148.788 43.7547 149.497C43.9751 150.653 44.1005 151.826 44.1299 153.003H44.6086V122.216H67.2539L67.2799 193.476Z" fill="white"/>
</g>
<g filter="url(#filter2_d_3214_11824)">
<path d="M73.1483 164.959C73.1483 154.778 75.4883 147.207 80.1683 142.246C84.8484 137.285 92.4288 134.8 102.91 134.792C113.382 134.792 120.962 137.276 125.651 142.246C130.34 147.216 132.68 154.787 132.671 164.959C132.671 175.149 130.331 182.725 125.651 187.685C120.971 192.646 113.391 195.136 102.91 195.153C92.6427 195.153 85.1222 192.72 80.348 187.854C75.5739 182.988 73.174 175.357 73.1483 164.959ZM97.2885 156.234V178.533H100.754C102.771 178.651 104.791 178.36 106.696 177.677C107.979 177.107 108.518 175.771 108.518 173.684V151.399H105.053C103.036 151.282 101.016 151.573 99.1109 152.254C97.9046 152.825 97.2885 154.147 97.2885 156.26V156.234Z" fill="white"/>
</g>
<g filter="url(#filter3_d_3214_11824)">
<path d="M140.85 150.84H135.186V136.142H140.85V127.068L163.477 121.378V136.168H171.235V150.84H163.477V176.764C164.421 176.958 165.456 177.127 166.581 177.283C167.705 177.438 168.908 177.555 170.175 177.62L169.128 194.314C158.784 194.314 152.06 193.744 148.957 192.604C146.683 191.884 144.613 190.631 142.918 188.948C141.412 187.1 140.672 184.743 140.85 182.364V150.84Z" fill="white"/>
</g>
<g filter="url(#filter4_d_3214_11824)">
<path d="M198.208 174.093V178.074C199.35 178.204 200.479 178.295 201.621 178.359C202.762 178.424 203.891 178.45 205.02 178.45C212.281 178.423 219.494 177.273 226.403 175.04L228.998 191.742C220.796 193.971 212.338 195.118 203.839 195.153C193.234 195.153 185.571 192.672 180.848 187.709C176.125 182.747 173.759 175.169 173.75 164.976C173.75 154.792 176.129 147.219 180.887 142.257C185.644 137.294 193.295 134.809 203.839 134.8C208.272 134.733 212.701 135.068 217.074 135.798C220.135 136.273 223.056 137.406 225.637 139.118C227.808 140.664 229.433 142.857 230.282 145.382C231.252 148.596 231.691 151.947 231.58 155.302C231.657 158.22 231.094 161.119 229.932 163.796C228.733 166.267 226.798 168.306 224.392 169.632C221.162 171.37 217.646 172.512 214.012 173.004C208.782 173.793 203.497 174.157 198.208 174.093ZM198.208 156.249V160.904H202.879C204.919 161.023 206.961 160.732 208.887 160.049C210.184 159.478 210.742 158.142 210.742 156.054V151.412H206.097C204.057 151.294 202.015 151.585 200.089 152.268C198.818 152.838 198.208 154.161 198.208 156.275V156.249Z" fill="white"/>
</g>
<g filter="url(#filter5_d_3214_11824)">
<path d="M188.128 39.4169L193.193 20.5171C191.946 20.1457 190.886 20.24 189.642 20.6133C188.399 20.9867 187.292 21.7162 186.456 22.7129C185.62 23.7096 185.092 24.9304 184.936 26.2262C184.78 27.5221 185.003 28.837 185.578 30.0104C186 30.8041 186.255 31.6763 186.327 32.5724C186.398 33.4685 186.285 34.3691 185.994 35.2177C185.524 36.4737 184.742 37.2437 183.901 38.2841L188.128 39.4169Z" fill="white"/>
<path d="M188.128 39.4169L193.193 20.5171C194.458 20.8188 195.329 21.4306 196.219 22.3757C197.109 23.3207 197.703 24.506 197.929 25.787C198.154 27.068 198.001 28.3892 197.488 29.5895C196.975 30.7897 196.125 31.817 195.041 32.5461C194.278 33.0223 193.621 33.6501 193.111 34.3903C192.601 35.1305 192.249 35.9671 192.077 36.8476C191.855 38.1701 192.147 39.2279 192.356 40.5497L188.128 39.4169Z" fill="#DBDDDC"/>
<path d="M163.908 50.8936C164.943 47.0314 168.936 44.7457 172.828 45.7885L185.511 49.1868L171.684 100.789L159.001 97.391C155.109 96.3483 152.794 92.3721 153.829 88.5099L163.908 50.8936Z" fill="white"/>
<path d="M203.366 61.4664C204.401 57.6042 202.085 53.6279 198.194 52.5852L185.511 49.1868L171.684 100.789L184.367 104.188C188.258 105.231 192.252 102.945 193.287 99.0826L203.366 61.4664Z" fill="#DBDDDC"/>
<path d="M187.303 59.5057C187.459 58.9263 188.058 58.5835 188.641 58.7399L197.801 61.1943C198.385 61.3507 198.732 61.9471 198.577 62.5265C198.422 63.1058 197.823 63.4487 197.239 63.2922L188.079 60.8379C187.496 60.6815 187.148 60.085 187.303 59.5057Z" fill="white"/>
<path d="M188.623 65.8554C188.778 65.2761 189.377 64.9332 189.961 65.0896L196.302 66.7888C196.886 66.9452 197.233 67.5417 197.078 68.121C196.923 68.7004 196.324 69.0432 195.74 68.8868L189.399 67.1876C188.815 67.0312 188.468 66.4348 188.623 65.8554Z" fill="white"/>
<path d="M187.124 71.45C187.279 70.8706 187.878 70.5278 188.462 70.6842L194.803 72.3834C195.387 72.5398 195.734 73.1362 195.579 73.7156C195.424 74.2949 194.825 74.6377 194.241 74.4813L187.9 72.7822C187.316 72.6257 186.969 72.0293 187.124 71.45Z" fill="white"/>
<path d="M182.806 76.2893C182.961 75.71 183.561 75.3671 184.144 75.5235L193.304 77.9779C193.888 78.1343 194.235 78.7308 194.08 79.3101C193.925 79.8894 193.326 80.2323 192.742 80.0759L183.582 77.6215C182.998 77.4651 182.651 76.8687 182.806 76.2893Z" fill="white"/>
<path d="M184.126 82.6391C184.281 82.0597 184.88 81.7169 185.464 81.8733L191.805 83.5725C192.389 83.7289 192.736 84.3253 192.581 84.9047C192.426 85.484 191.827 85.8268 191.243 85.6704L184.901 83.9712C184.318 83.8148 183.97 83.2184 184.126 82.6391Z" fill="white"/>
<path d="M182.627 88.2336C182.782 87.6543 183.381 87.3114 183.965 87.4678L190.306 89.167C190.89 89.3234 191.237 89.9199 191.082 90.4992C190.927 91.0785 190.328 91.4214 189.744 91.265L183.402 89.5658C182.819 89.4094 182.471 88.813 182.627 88.2336Z" fill="white"/>
<path d="M178.309 93.073C178.464 92.4936 179.063 92.1508 179.647 92.3072L188.807 94.7616C189.391 94.918 189.738 95.5144 189.583 96.0938C189.428 96.6731 188.829 97.0159 188.245 96.8595L179.085 94.4052C178.501 94.2487 178.154 93.6523 178.309 93.073Z" fill="white"/>
<path d="M173.202 44.3898C173.823 42.0725 176.219 40.7011 178.554 41.3267L187.01 43.5923L185.511 49.1868L172.828 45.7885L173.202 44.3898Z" fill="#EF498C"/>
<path d="M178.554 41.3267C179.175 39.0094 181.571 37.638 183.906 38.2636L188.134 39.3964L187.01 43.5923L178.554 41.3267Z" fill="#FBDDEA"/>
<path d="M187.01 43.5923L195.465 45.8579C197.8 46.4835 199.189 48.8692 198.568 51.1866L198.194 52.5852L185.511 49.1868L187.01 43.5923Z" fill="#E33D7F"/>
<path d="M188.134 39.3964L192.362 40.5292C194.696 41.1548 196.086 43.5405 195.465 45.8579L187.01 43.5923L188.134 39.3964Z" fill="#FAD2E4"/>
</g>
<defs>
<filter id="filter0_d_3214_11824" x="26.0591" y="0.513911" width="132.652" height="111.693" filterUnits="userSpaceOnUse" color-interpolation-filters="sRGB">
<feFlood flood-opacity="0" result="BackgroundImageFix"/>
<feColorMatrix in="SourceAlpha" type="matrix" values="0 0 0 0 0 0 0 0 0 0 0 0 0 0 0 0 0 0 127 0" result="hardAlpha"/>
<feOffset dx="2.88889" dy="2.88889"/>
<feGaussianBlur stdDeviation="3.61111"/>
<feComposite in2="hardAlpha" operator="out"/>
<feColorMatrix type="matrix" values="0 0 0 0 0 0 0 0 0 0 0 0 0 0 0 0 0 0 0.2 0"/>
<feBlend mode="normal" in2="BackgroundImageFix" result="effect1_dropShadow_3214_11824"/>
<feBlend mode="normal" in="SourceGraphic" in2="effect1_dropShadow_3214_11824" result="shape"/>
</filter>
<filter id="filter1_d_3214_11824" x="0.0702314" y="117.883" width="77.3208" height="85.7042" filterUnits="userSpaceOnUse" color-interpolation-filters="sRGB">
<feFlood flood-opacity="0" result="BackgroundImageFix"/>
<feColorMatrix in="SourceAlpha" type="matrix" values="0 0 0 0 0 0 0 0 0 0 0 0 0 0 0 0 0 0 127 0" result="hardAlpha"/>
<feOffset dx="2.88889" dy="2.88889"/>
<feGaussianBlur stdDeviation="3.61111"/>
<feComposite in2="hardAlpha" operator="out"/>
<feColorMatrix type="matrix" values="0 0 0 0 0 0 0 0 0 0 0 0 0 0 0 0 0 0 0.2 0"/>
<feBlend mode="normal" in2="BackgroundImageFix" result="effect1_dropShadow_3214_11824"/>
<feBlend mode="normal" in="SourceGraphic" in2="effect1_dropShadow_3214_11824" result="shape"/>
</filter>
<filter id="filter2_d_3214_11824" x="68.815" y="130.458" width="73.9673" height="74.8057" filterUnits="userSpaceOnUse" color-interpolation-filters="sRGB">
<feFlood flood-opacity="0" result="BackgroundImageFix"/>
<feColorMatrix in="SourceAlpha" type="matrix" values="0 0 0 0 0 0 0 0 0 0 0 0 0 0 0 0 0 0 127 0" result="hardAlpha"/>
<feOffset dx="2.88889" dy="2.88889"/>
<feGaussianBlur stdDeviation="3.61111"/>
<feComposite in2="hardAlpha" operator="out"/>
<feColorMatrix type="matrix" values="0 0 0 0 0 0 0 0 0 0 0 0 0 0 0 0 0 0 0.2 0"/>
<feBlend mode="normal" in2="BackgroundImageFix" result="effect1_dropShadow_3214_11824"/>
<feBlend mode="normal" in="SourceGraphic" in2="effect1_dropShadow_3214_11824" result="shape"/>
</filter>
<filter id="filter3_d_3214_11824" x="130.853" y="117.045" width="50.4935" height="87.3809" filterUnits="userSpaceOnUse" color-interpolation-filters="sRGB">
<feFlood flood-opacity="0" result="BackgroundImageFix"/>
<feColorMatrix in="SourceAlpha" type="matrix" values="0 0 0 0 0 0 0 0 0 0 0 0 0 0 0 0 0 0 127 0" result="hardAlpha"/>
<feOffset dx="2.88889" dy="2.88889"/>
<feGaussianBlur stdDeviation="3.61111"/>
<feComposite in2="hardAlpha" operator="out"/>
<feColorMatrix type="matrix" values="0 0 0 0 0 0 0 0 0 0 0 0 0 0 0 0 0 0 0.2 0"/>
<feBlend mode="normal" in2="BackgroundImageFix" result="effect1_dropShadow_3214_11824"/>
<feBlend mode="normal" in="SourceGraphic" in2="effect1_dropShadow_3214_11824" result="shape"/>
</filter>
<filter id="filter4_d_3214_11824" x="169.417" y="130.458" width="72.2906" height="74.8057" filterUnits="userSpaceOnUse" color-interpolation-filters="sRGB">
<feFlood flood-opacity="0" result="BackgroundImageFix"/>
<feColorMatrix in="SourceAlpha" type="matrix" values="0 0 0 0 0 0 0 0 0 0 0 0 0 0 0 0 0 0 127 0" result="hardAlpha"/>
<feOffset dx="2.88889" dy="2.88889"/>
<feGaussianBlur stdDeviation="3.61111"/>
<feComposite in2="hardAlpha" operator="out"/>
<feColorMatrix type="matrix" values="0 0 0 0 0 0 0 0 0 0 0 0 0 0 0 0 0 0 0.2 0"/>
<feBlend mode="normal" in2="BackgroundImageFix" result="effect1_dropShadow_3214_11824"/>
<feBlend mode="normal" in="SourceGraphic" in2="effect1_dropShadow_3214_11824" result="shape"/>
</filter>
<filter id="filter5_d_3214_11824" x="149.248" y="15.9481" width="64.4751" height="98.603" filterUnits="userSpaceOnUse" color-interpolation-filters="sRGB">
<feFlood flood-opacity="0" result="BackgroundImageFix"/>
<feColorMatrix in="SourceAlpha" type="matrix" values="0 0 0 0 0 0 0 0 0 0 0 0 0 0 0 0 0 0 127 0" result="hardAlpha"/>
<feOffset dx="2.88889" dy="2.88889"/>
<feGaussianBlur stdDeviation="3.61111"/>
<feComposite in2="hardAlpha" operator="out"/>
<feColorMatrix type="matrix" values="0 0 0 0 0 0 0 0 0 0 0 0 0 0 0 0 0 0 0.2 0"/>
<feBlend mode="normal" in2="BackgroundImageFix" result="effect1_dropShadow_3214_11824"/>
<feBlend mode="normal" in="SourceGraphic" in2="effect1_dropShadow_3214_11824" result="shape"/>
</filter>
</defs>
</svg>
