<svg width="16" height="24" viewBox="0 0 16 24" fill="none" xmlns="http://www.w3.org/2000/svg">
<path d="M7.99991 0C3.64214 0 0.0922246 3.38859 0.0078125 7.58325L1.37775 11.6387L7.85397 17.423C7.90483 17.4084 7.94978 17.3895 7.99991 17.3744C13.058 15.849 14.6048 11.6708 14.6235 11.6346L15.992 7.58311C15.9075 3.38859 12.3576 0 7.99991 0V0Z" fill="#7ADFE3"/>
<path d="M14.6236 11.6345L15.9921 7.58306C15.9076 3.38859 12.3577 0 8 0V17.3744C13.0581 15.849 14.6048 11.6708 14.6236 11.6345Z" fill="#68C9E0"/>
<path d="M10.1586 3.294C9.50076 2.99363 8.77426 2.8125 7.99996 2.8125L6.54541 4.21875L7.99996 7.03125L11.6363 4.92188C11.6363 4.84598 10.1667 3.36783 10.1586 3.294Z" fill="#FFBE40"/>
<path d="M10.1586 3.294C9.5008 2.99363 8.7743 2.8125 8 2.8125V7.03125L11.6364 4.92188C11.6364 4.84598 10.1667 3.36783 10.1586 3.294Z" fill="#FF9133"/>
<path d="M10.1587 3.294C10.1668 3.36783 10.1819 3.43973 10.1819 3.51562C10.1819 4.67878 9.20319 5.625 8.00009 5.625C7.5981 5.625 7.27282 5.31052 7.27282 4.92188C7.27282 4.53323 7.5981 4.21875 8.00009 4.21875C8.40067 4.21875 8.72736 3.90356 8.72736 3.51562C8.72736 3.12769 8.40067 2.8125 8.00009 2.8125C5.19325 2.8125 2.90918 5.02073 2.90918 7.73438C2.90918 10.448 5.19325 12.6562 8.00009 12.6562C10.8069 12.6562 13.091 10.448 13.091 7.73438C13.091 5.76938 11.8853 4.08244 10.1587 3.294Z" fill="#FFD9B3"/>
<path d="M8.72727 3.51562C8.72727 3.12769 8.40058 2.8125 8 2.8125V4.21875C8.40058 4.21875 8.72727 3.90356 8.72727 3.51562Z" fill="#FFBB99"/>
<path d="M13.0909 7.73432C13.0909 5.76932 11.8852 4.08238 10.1586 3.29395C10.1667 3.36777 10.1818 3.43968 10.1818 3.51557C10.1818 4.67873 9.2031 5.62494 8 5.62494V12.6562C10.8068 12.6562 13.0909 10.448 13.0909 7.73432Z" fill="#FFBB99"/>
<path d="M15.992 7.58301C14.9963 9.4229 13.9412 13.5963 5.70898 15.0566C6.41415 15.3818 7.22389 15.6869 8.14666 15.9521C9.82084 16.4332 11.8665 16.8267 14.365 16.8968L15.9999 15.4503V7.73432C15.9999 7.68327 15.9931 7.63382 15.992 7.58301Z" fill="#BFD6FF"/>
<path d="M6.54539 9.14062C6.94705 9.14062 7.27266 8.82583 7.27266 8.4375C7.27266 8.04917 6.94705 7.73438 6.54539 7.73438C6.14373 7.73438 5.81812 8.04917 5.81812 8.4375C5.81812 8.82583 6.14373 9.14062 6.54539 9.14062Z" fill="#4D5E80"/>
<path d="M9.45457 9.14062C9.85623 9.14062 10.1818 8.82583 10.1818 8.4375C10.1818 8.04917 9.85623 7.73438 9.45457 7.73438C9.05291 7.73438 8.72729 8.04917 8.72729 8.4375C8.72729 8.82583 9.05291 9.14062 9.45457 9.14062Z" fill="#3D4566"/>
<path d="M8 14.4944C1.82744 12.6623 1.13619 9.65474 0.00790313 7.58301C0.00683646 7.63377 0 7.68313 0 7.73413V16.1716C0 20.4364 3.58948 23.9998 8 23.9998C12.4556 23.9998 16 20.383 16 16.1716V15.4501C12.6592 15.5138 10.0497 15.1027 8 14.4944Z" fill="#ECF2FF"/>
<path d="M16 16.172V15.4505C12.6592 15.5142 10.0497 15.103 8 14.4946V24.0001C12.4556 24.0001 16 20.3833 16 16.172Z" fill="#D9E5FF"/>
</svg>
