<svg width="24" height="24" viewBox="0 0 24 24" fill="none" xmlns="http://www.w3.org/2000/svg">
<path d="M14.0979 16.6875C14.0979 17.0156 13.8284 17.2734 13.512 17.2734H8.48462C8.15646 17.2734 7.89868 17.0156 7.89868 16.6875C7.89868 16.3593 8.15646 16.1016 8.48462 16.1016H13.5119C13.8284 16.1016 14.0979 16.3593 14.0979 16.6875Z" fill="#ECF2FF"/>
<path d="M14.0979 16.6875C14.0979 17.0156 13.8284 17.2735 13.512 17.2735H10.8284V16.1016H13.512C13.8284 16.1016 14.0979 16.3593 14.0979 16.6875Z" fill="#D9E5FF"/>
<path d="M14.9344 19.8106C14.7318 19.8106 14.5339 19.7047 14.4251 19.5153L11.6579 14.6342C11.4977 14.3533 11.595 13.9956 11.8765 13.8349C12.1535 13.6741 12.5128 13.769 12.6765 14.0529L15.4437 18.9339C15.6039 19.2149 15.5066 19.5725 15.2251 19.7333C15.1335 19.786 15.034 19.8106 14.9344 19.8106Z" fill="#D9E5FF"/>
<path d="M10.2424 2H9.65642C8.5095 2 7.42505 2.30121 6.44849 2.75727L7.6763 6.21622L10.8283 9.07032V2.58594C10.8283 2.26231 10.566 2 10.2424 2Z" fill="#4D5E80"/>
<path d="M3.05225 5.81268L5.81631 8.1319L10.8284 9.07038L6.44858 2.75732C5.04338 3.4135 3.83369 4.4833 3.05225 5.81268Z" fill="#3D4566"/>
<path d="M2 9.65614H9.65626L10.8281 9.0702L3.05199 5.8125C2.38781 6.94246 2 8.25344 2 9.65614Z" fill="#2E2E4D"/>
<path d="M19.4936 9.29574C19.3826 9.15328 19.2121 9.07031 19.0313 9.07031H10.8281H2.58595C2.40513 9.07031 2.23462 9.15328 2.1236 9.29574C2.01259 9.43766 1.97368 9.62305 2.01716 9.79813L2.74501 12.7101C3.07231 14.017 4.24075 14.9297 5.58771 14.9297H10.8281H16.0295C17.3764 14.9297 18.5449 14.017 18.8722 12.7101L19.6 9.79813C19.6435 9.62301 19.6046 9.43762 19.4936 9.29574Z" fill="#8AEBAB"/>
<path d="M18.8722 12.7101L19.6 9.79813C19.6435 9.62305 19.6046 9.43762 19.4936 9.29574C19.3826 9.15328 19.2121 9.07031 19.0313 9.07031H10.8281V14.9297H16.0295C17.3765 14.9297 18.5449 14.017 18.8722 12.7101Z" fill="#71D9A3"/>
<path d="M16.143 6.72656H20.2424C20.5651 6.72656 20.8283 6.98922 20.8283 7.3125C20.8283 7.63637 21.0904 7.89844 21.4143 7.89844C21.7381 7.89844 22.0002 7.63637 22.0002 7.3125C22.0002 6.3432 21.2117 5.55469 20.2424 5.55469H16.143C15.5536 5.55469 15.0077 5.84707 14.6804 6.33746L10.8284 12.1156V14.2282L15.6554 6.9875C15.7642 6.82383 15.9461 6.72656 16.143 6.72656Z" fill="#D9E5FF"/>
<path d="M20.2423 5.55469H16.1429C15.5536 5.55469 15.0077 5.84707 14.6804 6.33746L10.8283 12.1156L6.30331 18.9422C6.12362 19.2117 6.19686 19.575 6.46581 19.7547C6.56538 19.8211 6.67866 19.8531 6.79081 19.8531C6.97964 19.8531 7.16503 19.7616 7.27831 19.5922L10.8283 14.2282L15.6554 6.9875C15.7641 6.82387 15.9461 6.72656 16.1429 6.72656H20.2423C20.565 6.72656 20.8282 6.98922 20.8282 7.3125C20.8282 7.63637 21.0903 7.89844 21.4142 7.89844C21.7381 7.89844 22.0001 7.63637 22.0001 7.3125C22.0002 6.3432 21.2117 5.55469 20.2423 5.55469Z" fill="#ECF2FF"/>
<path d="M10.8281 14.2282L15.6552 6.9875C15.764 6.82387 15.9459 6.72656 16.1427 6.72656H20.2422C20.5649 6.72656 20.8281 6.98922 20.8281 7.3125C20.8281 7.63637 21.0902 7.89844 21.414 7.89844C21.7379 7.89844 22 7.63637 22 7.3125C22 6.3432 21.2115 5.55469 20.2422 5.55469H16.1428C15.5534 5.55469 15.0075 5.84707 14.6802 6.33746L10.8282 12.1156V14.2282H10.8281Z" fill="#D9E5FF"/>
<path d="M15.5159 22C14.5466 22 13.7581 21.2115 13.7581 20.2422C13.7581 19.2729 14.5466 18.4844 15.5159 18.4844C16.4852 18.4844 17.2737 19.2729 17.2737 20.2422C17.2737 21.2115 16.4852 22 15.5159 22Z" fill="#3D4566"/>
<path d="M15.5159 20.8281C15.8395 20.8281 16.1018 20.5658 16.1018 20.2422C16.1018 19.9186 15.8395 19.6562 15.5159 19.6562C15.1923 19.6562 14.9299 19.9186 14.9299 20.2422C14.9299 20.5658 15.1923 20.8281 15.5159 20.8281Z" fill="#D9E5FF"/>
<path d="M6.14063 22C5.17133 22 4.38281 21.2115 4.38281 20.2422C4.38281 19.2729 5.17133 18.4844 6.14063 18.4844C7.10992 18.4844 7.89844 19.2729 7.89844 20.2422C7.89844 21.2115 7.10996 22 6.14063 22Z" fill="#4D5E80"/>
<path d="M6.14063 20.8281C6.46424 20.8281 6.72658 20.5658 6.72658 20.2422C6.72658 19.9186 6.46424 19.6562 6.14063 19.6562C5.81702 19.6562 5.55469 19.9186 5.55469 20.2422C5.55469 20.5658 5.81702 20.8281 6.14063 20.8281Z" fill="#D9E5FF"/>
</svg>
