<svg width="22" height="20" viewBox="0 0 22 20" fill="none" xmlns="http://www.w3.org/2000/svg">
<path d="M21.7771 5.49541L16.131 0.486977C15.7811 0.173155 15.3317 0 14.8672 0H14.2226L12.9336 0.666665H11H9.06646L7.77741 0H7.13289C6.66836 0 6.21895 0.173155 5.86902 0.48631L0.222953 5.49541C-0.0464577 5.7363 -0.0753753 6.15687 0.156223 6.4355L2.68271 9.4622C2.90971 9.73393 3.31542 9.7778 3.59286 9.53122L5.19932 8.13278V13.3333L9.71098 20H11H12.2891L16.8007 13.3333V8.13274L18.4072 9.53118C18.6848 9.77793 19.0907 9.7334 19.3173 9.46216L21.8438 6.43545C22.0754 6.15683 22.0464 5.7363 21.7771 5.49541Z" fill="#7ADFE3"/>
</svg>
