<svg width="24" height="24" viewBox="0 0 24 24" fill="none" xmlns="http://www.w3.org/2000/svg">
<path d="M14.8041 4.50595C14.517 4.39472 14.3332 4.14066 14.3332 3.85983V2.10938C14.3332 0.946219 13.2865 0 11.9999 0C10.7132 0 9.66653 0.946219 9.66653 2.10938V3.80212C9.66653 4.09945 9.4584 4.36584 9.14853 4.46541C7.59754 4.96256 6.55542 6.29536 6.55542 7.78125C6.55542 8.16989 6.90329 8.48438 7.3332 8.48438H11.9999H16.6665C17.0964 8.48438 17.4443 8.16989 17.4443 7.78125C17.4443 6.71831 16.3597 5.11228 14.8041 4.50595Z" fill="#FFDF40"/>
<path d="M17.4444 7.78125C17.4444 6.71831 16.3598 5.11228 14.8043 4.50595C14.5171 4.39472 14.3333 4.14066 14.3333 3.85983V2.10938C14.3333 0.946219 13.2867 0 12 0V8.48438H16.6667C17.0966 8.48438 17.4444 8.16989 17.4444 7.78125Z" fill="#FFBE40"/>
<path d="M18.1433 17.3167C17.768 16.6225 17.4444 16.023 17.4444 14.8125V9.1875H12H6.55556V14.8125C6.55556 16.023 6.232 16.6225 5.85675 17.3167C5.45573 18.0596 5 18.9022 5 20.4375C5 22.3759 6.74393 24 8.88889 24H12H15.1111C17.2561 24 19 22.3759 19 20.4375C19 18.9022 18.5443 18.0596 18.1433 17.3167Z" fill="#ECF2FF"/>
<path d="M19 20.4375C19 18.9022 18.5443 18.0596 18.1433 17.3167C17.768 16.6225 17.4444 16.023 17.4444 14.8125V9.1875H12V24H15.1111C17.2561 24 19 22.3759 19 20.4375Z" fill="#D9E5FF"/>
<path d="M13.5556 12.7031C13.1257 12.7031 12.7779 13.0176 12.7779 13.4062V14.1094H12.0001H10.4445C10.0146 14.1094 9.66675 14.4239 9.66675 14.8125C9.66675 15.2011 10.0146 15.5156 10.4445 15.5156H12.0001H12.7779V16.9219H12.0001H10.4445C10.0146 16.9219 9.66675 17.2364 9.66675 17.625C9.66675 18.0136 10.0146 18.3281 10.4445 18.3281H12.0001H12.7779V19.7344H12.0001H10.4445C10.0146 19.7344 9.66675 20.0489 9.66675 20.4375C9.66675 20.8261 10.0146 21.1406 10.4445 21.1406H12.0001H13.5556C13.9855 21.1406 14.3334 20.8261 14.3334 20.4375V13.4062C14.3334 13.0176 13.9855 12.7031 13.5556 12.7031Z" fill="#7ADFE3"/>
<path d="M14.3333 20.4375V13.4062C14.3333 13.0176 13.9855 12.7031 13.5556 12.7031C13.1257 12.7031 12.7778 13.0176 12.7778 13.4062V14.1094H12V15.5156H12.7778V16.9219H12V18.3281H12.7778V19.7344H12V21.1406H13.5556C13.9855 21.1406 14.3333 20.8261 14.3333 20.4375Z" fill="#68C9E0"/>
<path d="M17.4444 7.07812H12H6.55556C5.69642 7.07812 5 7.7077 5 8.48438C5 9.26095 5.69642 9.89062 6.55556 9.89062H12H17.4444C18.3036 9.89062 19 9.26095 19 8.48438C19 7.7077 18.3036 7.07812 17.4444 7.07812Z" fill="#7ADFE3"/>
<path d="M19 8.48438C19 7.7077 18.3036 7.07812 17.4444 7.07812H12V9.89062H17.4444C18.3036 9.89062 19 9.26095 19 8.48438Z" fill="#68C9E0"/>
</svg>
