<svg width="20" height="20" viewBox="0 0 20 20" fill="none" xmlns="http://www.w3.org/2000/svg">
<path d="M8.86694 2.34375C8.54308 2.34375 8.28101 2.60582 8.28101 2.92969C8.28101 4.54504 9.59479 5.89844 11.2107 5.89844V2.34375H8.86694Z" fill="#D9E5FF"/>
<path d="M16.5459 9.09019C16.4017 8.80066 16.5185 8.44875 16.808 8.30398L18.504 7.45598C18.7043 7.35641 18.8279 7.15559 18.8279 6.93184V4.10156C18.8279 3.77828 18.5647 3.51562 18.2419 3.51562H17.0701C16.7462 3.51562 16.4841 3.25355 16.4841 2.92969C16.4841 2.60582 16.7462 2.34375 17.0701 2.34375H18.2419C19.2112 2.34375 19.9998 3.13227 19.9998 4.10156V6.93184C19.9998 7.60187 19.6278 8.20441 19.0282 8.50426L17.3321 9.35226C17.036 9.49828 16.6888 9.37515 16.5459 9.09019Z" fill="#3D4566"/>
<path d="M17.5968 2.34375L16.5026 1.75781H14.1404H11.6732L10.684 2.34375C10.6453 2.53316 10.6248 2.72906 10.6248 2.92969V10C10.6248 10.9693 11.4133 11.7578 12.3826 11.7578L13.1905 12.3437H14.1404H15.0224L15.8982 11.7578C16.8675 11.7578 17.656 10.9693 17.656 10V2.92969C17.656 2.72906 17.6354 2.53316 17.5968 2.34375Z" fill="#ECF2FF"/>
<path d="M15.8982 11.7578C16.8675 11.7578 17.656 10.9693 17.656 10V2.92969C17.656 2.72906 17.6354 2.53316 17.5968 2.34375L16.5026 1.75781H14.1404V12.3437H15.0224L15.8982 11.7578Z" fill="#D9E5FF"/>
<path d="M14.7263 7.07031V1.75781C14.7263 1.43395 14.4642 1.17188 14.1404 1.17188C13.8165 1.17188 13.5544 1.43395 13.5544 1.75781V7.07031C13.2306 7.07031 12.9685 7.33238 12.9685 7.65625C12.9685 7.98012 13.2306 8.24219 13.5544 8.24219H14.1404H14.7263C15.0502 8.24219 15.3123 7.98012 15.3123 7.65625C15.3123 7.33238 15.0502 7.07031 14.7263 7.07031Z" fill="#4D5E80"/>
<path d="M15.3123 7.65625C15.3123 7.33238 15.0502 7.07031 14.7263 7.07031V1.75781C14.7263 1.43395 14.4642 1.17188 14.1404 1.17188V8.24219H14.7263C15.0502 8.24219 15.3123 7.98012 15.3123 7.65625Z" fill="#3D4566"/>
<path d="M19.9701 19.2287L17.893 12.96C17.6538 12.2407 16.9832 11.7578 16.2255 11.7578H14.1405H12.0553C11.2977 11.7578 10.6271 12.2407 10.3879 12.9595L8.31081 19.2287C8.25132 19.4072 8.28105 19.604 8.39206 19.7568C8.50191 19.9096 8.67816 20 8.86699 20H14.1404H19.4139C19.6027 20 19.7789 19.9096 19.8888 19.7568C19.9998 19.604 20.0296 19.4072 19.9701 19.2287Z" fill="#7ADFE3"/>
<path d="M19.8887 19.7568C19.9998 19.604 20.0295 19.4072 19.97 19.2286L17.8929 12.96C17.6537 12.2407 16.9831 11.7578 16.2255 11.7578H14.1404V20H19.4138C19.6026 20 19.7789 19.9096 19.8887 19.7568Z" fill="#68C9E0"/>
<path d="M14.1404 17.6172C15.1112 17.6172 15.8982 16.8302 15.8982 15.8594C15.8982 14.8886 15.1112 14.1016 14.1404 14.1016C13.1696 14.1016 12.3826 14.8886 12.3826 15.8594C12.3826 16.8302 13.1696 17.6172 14.1404 17.6172Z" fill="#ECF2FF"/>
<path d="M15.8982 15.8594C15.8982 14.8901 15.1097 14.1016 14.1404 14.1016V17.6172C15.1097 17.6172 15.8982 16.8287 15.8982 15.8594Z" fill="#D9E5FF"/>
<path d="M7.97632 8.38281L7.09741 13.6093C7.05058 13.8907 6.80444 14.1016 6.52319 14.1016H1.75757C1.47632 14.1016 1.23022 13.8906 1.18335 13.6093L0.304443 8.38281H7.97632Z" fill="#ECF2FF"/>
<path d="M7.97632 8.38281L7.09741 13.6093C7.05058 13.8907 6.80444 14.1016 6.52319 14.1016H4.14038V8.38281H7.97632Z" fill="#D9E5FF"/>
<path d="M7.69507 7.07031H0.585693C0.257529 7.07031 -0.000244141 7.32809 -0.000244141 7.65625V8.82812C-0.000244141 9.15621 0.257529 9.41406 0.585693 9.41406H7.69507C8.02323 9.41406 8.281 9.15621 8.281 8.82812V7.65625C8.281 7.32809 8.02323 7.07031 7.69507 7.07031Z" fill="#8AEBAB"/>
<path d="M8.28101 7.65625V8.82812C8.28101 9.15621 8.02323 9.41406 7.69507 9.41406H4.14038V7.07031H7.69507C8.02323 7.07031 8.28101 7.32809 8.28101 7.65625Z" fill="#71D9A3"/>
<path d="M7.97632 14.2422L7.09741 19.5078C7.05058 19.7891 6.80444 20 6.52319 20H1.75757C1.47632 20 1.23022 19.7891 1.18335 19.5078L0.304443 14.2422H7.97632Z" fill="#ECF2FF"/>
<path d="M7.97632 14.2422L7.09741 19.5078C7.05058 19.7891 6.80444 20 6.52319 20H4.14038V14.2422H7.97632Z" fill="#D9E5FF"/>
<path d="M7.69507 12.9297H0.585693C0.257529 12.9297 -0.000244141 13.1875 -0.000244141 13.5156V14.6875C-0.000244141 15.0156 0.257529 15.2734 0.585693 15.2734H7.69507C8.02323 15.2734 8.281 15.0156 8.281 14.6875V13.5156C8.281 13.1875 8.02323 12.9297 7.69507 12.9297Z" fill="#8AEBAB"/>
<path d="M8.28101 13.5156V14.6875C8.28101 15.0156 8.02323 15.2734 7.69507 15.2734H4.14038V12.9297H7.69507C8.02323 12.9297 8.28101 13.1875 8.28101 13.5156Z" fill="#71D9A3"/>
<path d="M14.1404 16.4453C14.464 16.4453 14.7263 16.183 14.7263 15.8594C14.7263 15.5358 14.464 15.2734 14.1404 15.2734C13.8168 15.2734 13.5544 15.5358 13.5544 15.8594C13.5544 16.183 13.8168 16.4453 14.1404 16.4453Z" fill="#4D5E80"/>
<path d="M14.7263 15.8594C14.7263 15.5361 14.4631 15.2734 14.1404 15.2734V16.4453C14.4631 16.4453 14.7263 16.1827 14.7263 15.8594Z" fill="#3D4566"/>
<path d="M14.7264 0H14.1405H13.5546C12.1394 0 10.9563 1.00816 10.6841 2.34375H14.1405H17.5969C17.3247 1.00816 16.1416 0 14.7264 0Z" fill="#7ADFE3"/>
<path d="M14.7263 0H14.1404V2.34375H17.5968C17.3246 1.00816 16.1415 0 14.7263 0Z" fill="#68C9E0"/>
</svg>
