<svg width="24" height="24" viewBox="0 0 24 24" fill="none" xmlns="http://www.w3.org/2000/svg">
<path d="M14 5.5C14 6.32843 13.3284 7 12.5 7C11.6716 7 11 6.32843 11 5.5C11 4.67157 11.6716 4 12.5 4C13.3284 4 14 4.67157 14 5.5Z" fill="#424242"/>
<path d="M14 12.5C14 13.3284 13.3284 14 12.5 14C11.6716 14 11 13.3284 11 12.5C11 11.6716 11.6716 11 12.5 11C13.3284 11 14 11.6716 14 12.5Z" fill="#424242"/>
<path d="M14 19.5C14 20.3284 13.3284 21 12.5 21C11.6716 21 11 20.3284 11 19.5C11 18.6716 11.6716 18 12.5 18C13.3284 18 14 18.6716 14 19.5Z" fill="#424242"/>
</svg>
