<svg width="22" height="22" viewBox="0 0 22 22" fill="none" xmlns="http://www.w3.org/2000/svg">
<path fill-rule="evenodd" clip-rule="evenodd" d="M8.98406 14.1229C5.35042 14.1229 2.35376 17.146 1.92934 21.047C1.87233 21.5709 1.44913 22 0.920281 22C0.391428 22 -0.0416262 21.5716 0.00319325 21.0464C0.436354 15.9709 4.29187 12 8.98406 12H13.0159C17.7081 12 21.5636 15.9709 21.9968 21.0464C22.0416 21.5716 21.6086 22 21.0797 22C20.5509 22 20.1277 21.5709 20.0707 21.047C19.6462 17.146 16.6496 14.1229 13.0159 14.1229H8.98406Z" fill="#424242"/>
<path fill-rule="evenodd" clip-rule="evenodd" d="M19.871 15.4989C20.9378 16.8798 21.6709 18.5868 21.9319 20.4664C21.949 20.5901 21.9642 20.7144 21.9772 20.8395C21.9844 20.9083 21.9909 20.9772 21.9968 21.0464C22.0416 21.5716 21.6086 22 21.0797 22C20.6063 22 20.2176 21.6562 20.1004 21.2082C20.0866 21.1558 20.0766 21.1019 20.0707 21.047C20.0617 20.9644 20.0515 20.8822 20.0403 20.8004C19.8275 19.2571 19.2108 17.8612 18.3134 16.7495C17.0122 15.1374 15.1209 14.1229 13.0159 14.1229H8.98406C6.87906 14.1229 4.98784 15.1374 3.68662 16.7495C2.78923 17.8612 2.17247 19.2571 1.95974 20.8004C1.94846 20.8822 1.93832 20.9644 1.92934 21.047C1.92336 21.1019 1.91336 21.1558 1.89963 21.2082C1.78243 21.6562 1.39369 22 0.920281 22C0.391428 22 -0.0416262 21.5716 0.00319325 21.0464C0.0090961 20.9772 0.0156345 20.9083 0.0228019 20.8395C0.0358422 20.7144 0.0509658 20.5901 0.0681309 20.4664C0.3291 18.5868 1.06223 16.8798 2.12903 15.4989C3.78361 13.3572 6.24085 12 8.98406 12H13.0159C15.7592 12 18.2164 13.3572 19.871 15.4989ZM11 10C13.7708 10 16.017 7.76142 16.017 5C16.017 2.23858 13.7708 0 11 0C8.22921 0 5.98305 2.23858 5.98305 5C5.98305 7.76142 8.22921 10 11 10ZM11 8C12.6726 8 14.017 6.65048 14.017 5C14.017 3.34952 12.6726 2 11 2C9.3274 2 7.98305 3.34952 7.98305 5C7.98305 6.65048 9.3274 8 11 8Z" fill="#424242"/>
</svg>
