<svg width="24" height="24" viewBox="0 0 24 24" fill="none" xmlns="http://www.w3.org/2000/svg">
<rect x="4.7" y="4.7" width="15.6" height="16.6" rx="1.3" stroke="#BDBDBD" stroke-width="1.4"/>
<rect x="7" y="13" width="6" height="1.4" rx="0.7" fill="#BDBDBD"/>
<rect x="7" y="16" width="10" height="1.4" rx="0.7" fill="#BDBDBD"/>
<path d="M19.7876 2.83588C20.1742 2.16627 21.0304 1.93685 21.7 2.32345C22.3696 2.71005 22.599 3.56627 22.2124 4.23588L18.965 9.86053C18.8942 9.98317 18.8052 10.0944 18.7011 10.1903L17.1951 11.5773C16.9505 11.8026 16.5879 11.8428 16.3 11.6765C16.012 11.5103 15.8655 11.1762 15.9383 10.8518L16.3866 8.85403C16.4176 8.71585 16.4694 8.58317 16.5402 8.46053L19.7876 2.83588Z" fill="white" stroke="#BDBDBD" stroke-width="1.2"/>
</svg>
