<svg width="287" height="197" viewBox="0 0 287 197" fill="none" xmlns="http://www.w3.org/2000/svg">
<path d="M241.005 36.0849C241.005 36.0849 253.538 28.132 253.675 29.2266C253.811 30.3211 250.397 43.3797 249.417 41.8803C248.437 40.3808 242.829 28.5813 245.107 29.0115C247.385 29.4417 257.939 36.6543 255.687 36.9264C253.434 37.1984 240.719 37.3186 241.005 36.0849Z" fill="#FBF291"/>
<g filter="url(#filter0_d_372_6500)">
<path d="M129.81 41.3591C85.7101 43.2991 61.2801 101.289 53.8101 122.359C63.6801 121.619 72.91 120.489 72.91 120.489C72.91 120.489 74.6701 68.9391 130.01 56.6591C185.35 44.3791 210.48 121.349 210.48 121.349C210.48 121.349 218.48 121.549 227.31 120.869C217.75 92.0391 191.6 38.6491 129.81 41.3591Z" fill="#B2CEFA"/>
</g>
<g filter="url(#filter1_d_372_6500)">
<path d="M128.88 26.1002C68.85 31.9502 45.61 98.7502 39.12 123.04C43.4 123.04 48.7 122.81 53.84 122.42C61.28 101.34 85.71 43.3502 129.84 41.4202C191.63 38.7102 217.78 92.0602 227.37 120.94C233.27 120.48 239.56 119.62 244.19 118.04C237.74 96.1702 209.12 18.2802 128.88 26.1002Z" fill="#FBEC79"/>
</g>
<g filter="url(#filter2_d_372_6500)">
<path d="M141.62 10.4802C47.1201 4.85017 30.6101 116.04 30.1901 120.92C30.0701 122.38 33.8101 122.92 39.1201 122.99C45.6101 98.7502 68.8501 31.9902 128.88 26.1002C209.12 18.2802 237.74 96.1702 244.12 117.98C248.22 116.58 251.02 114.62 251.04 111.86C251.12 101.3 236.12 16.1202 141.62 10.4802Z" fill="#FFBFBD"/>
</g>
<g filter="url(#filter3_d_372_6500)">
<path d="M27.4099 99.1704C27.4099 99.1704 24.4699 82.2404 41.1199 87.0404C57.7699 91.8404 53.0299 107.67 46.5699 102.6C40.1099 97.5304 51.0799 78.9604 63.9399 86.5004C76.7999 94.0404 74.6499 109.77 65.7999 111.29C56.9499 112.81 70.4399 92.8804 82.1299 104.36C93.8199 115.84 70.2599 138.63 59.9299 131.04C49.5999 123.45 56.9299 110.2 59.6199 117.97C62.3099 125.74 56.1899 133.74 38.4499 134.17C20.7099 134.6 27.5999 107.04 34.1199 114.69C40.6399 122.34 30.7299 131.76 17.8299 122.92C4.92992 114.08 18.4099 94.1504 27.4099 99.1704Z" fill="#F5F5F5"/>
</g>
<g filter="url(#filter4_d_372_6500)">
<path d="M215.79 99.4106C215.79 99.4106 212.85 82.4806 229.45 87.3206C246.05 92.1606 241.36 107.951 234.9 102.871C228.44 97.7906 239.41 79.2306 252.27 86.7706C265.13 94.3106 262.97 110.041 254.12 111.561C245.27 113.081 258.75 93.1506 270.44 104.631C282.13 116.111 258.58 138.901 248.25 131.311C237.92 123.721 245.25 110.471 247.94 118.241C250.63 126.011 244.52 134.041 226.78 134.441C209.04 134.841 215.98 107.251 222.5 114.931C229.02 122.611 219.12 132.041 206.21 123.171C193.3 114.301 206.79 94.3906 215.79 99.4106Z" fill="#F5F5F5"/>
</g>
<path d="M28.3039 47.5205C28.3039 47.5205 36.0808 37.7718 35.1618 37.5619C34.2429 37.352 22.888 39.0885 24.0888 40.0345C25.2897 40.9805 34.8203 46.6182 34.6604 44.7099C34.5004 42.8015 29.2391 33.3909 28.8135 35.2392C28.3879 37.0875 27.244 47.6514 28.3039 47.5205Z" fill="#FBF291"/>
<path d="M63.6719 179.453C61.6094 179.461 60.1641 181.344 60.1719 184.297C60.1641 187.258 61.6094 189.133 63.6719 189.125C65.7188 189.133 67.1719 187.258 67.1875 184.297C67.1719 181.344 65.7188 179.461 63.6719 179.453ZM61.3281 184.297C61.3359 182.039 62.2969 180.555 63.6719 180.547C65.0625 180.555 66 182.039 66 184.297C66 186.555 65.0625 188.039 63.6719 188.031C62.2969 188.039 61.3359 186.555 61.3281 184.297ZM69.4844 192.266H70.7031V184.984H73.0312V183.922H70.7031V178.375H69.4844V192.266ZM78.7812 180.953V180.359H81.9844V179.359H74.2969V180.359H77.5469V180.953C77.5391 182.922 76.0703 184.734 73.9844 185.469L74.625 186.422C76.2812 185.828 77.5781 184.578 78.1875 183C78.8203 184.469 80.1016 185.609 81.7188 186.156L82.3438 185.203C80.2656 184.523 78.7891 182.82 78.7812 180.953ZM75.9062 188.531H84.0312V192.266H85.25V187.516H75.9062V188.531ZM84.0312 186.781H85.25V178.375H84.0312V186.781ZM102.484 178.375H101.266V186.5H102.484V182.766H104.578V181.734H102.484V178.375ZM92.2188 185.625H98.6875V179.172H97.4688V181.297H93.4219V179.172H92.2188V185.625ZM93.4219 184.641V182.281H97.4688V184.641H93.4219ZM93.7656 192.078H102.859V191.078H94.9844V188.266H102.594V187.281H93.7656V192.078ZM118.109 185.703H105.453V186.703H118.109V185.703ZM106.859 181.625C106.859 183.352 108.766 184.391 111.781 184.391C114.766 184.391 116.68 183.352 116.688 181.625C116.68 179.883 114.766 178.859 111.781 178.875C108.766 178.859 106.859 179.883 106.859 181.625ZM107.094 191.969H116.703V190.938H108.328V187.922H107.094V191.969ZM108.125 181.625C108.117 180.539 109.539 179.859 111.781 179.859C114.008 179.859 115.43 180.539 115.438 181.625C115.43 182.727 114.008 183.391 111.781 183.391C109.539 183.391 108.117 182.727 108.125 181.625ZM134.156 178.375H132.938V185.453H134.156V182.422H136.25V181.391H134.156V178.375ZM123.562 181.969C123.555 183.797 125.086 185.055 127.172 185.062C129.266 185.055 130.781 183.797 130.781 181.969C130.781 180.148 129.266 178.898 127.172 178.891C125.086 178.898 123.555 180.148 123.562 181.969ZM124.766 181.969C124.758 180.766 125.781 179.906 127.172 179.922C128.555 179.906 129.586 180.766 129.578 181.969C129.586 183.188 128.555 184.062 127.172 184.062C125.781 184.062 124.758 183.188 124.766 181.969ZM125.297 187.094H132.938V188.562H125.328V192.078H134.672V191.094H126.531V189.5H134.156V186.109H125.297V187.094ZM148.594 178.391H147.375V186.625H148.594V178.391ZM137.828 180.219H142.953V182.031H137.859V185.953H138.984C141.547 185.953 143.445 185.875 145.781 185.516L145.641 184.484C143.383 184.859 141.531 184.938 139.047 184.922V183H144.172V179.234H137.828V180.219ZM139.562 192.078H148.594V187.375H139.562V192.078ZM140.766 191.078V188.375H147.391V191.078H140.766ZM162.406 178.375H161.172V192.297H162.406V178.375ZM151.469 184.297C151.477 187.258 152.945 189.133 155.016 189.125C157.078 189.133 158.57 187.258 158.562 184.297C158.57 181.344 157.078 179.461 155.016 179.453C152.945 179.461 151.477 181.344 151.469 184.297ZM152.656 184.297C152.656 182.039 153.625 180.555 155.016 180.547C156.414 180.555 157.375 182.039 157.375 184.297C157.375 186.555 156.414 188.039 155.016 188.031C153.625 188.039 152.656 186.555 152.656 184.297ZM171.562 186.531H170.406V192.078H175.234V186.531H174.094V188.266H171.562V186.531ZM169.016 182.188C169.008 184.094 170.508 185.391 172.625 185.391C174.508 185.391 175.938 184.312 176.18 182.672H179.078V185.734H180.312V178.375H179.078V181.656H176.172C175.906 180.055 174.492 179 172.625 179C170.508 179 169.008 180.289 169.016 182.188ZM170.188 182.188C170.188 180.922 171.195 180.031 172.625 180.031C174.023 180.031 175.031 180.922 175.031 182.188C175.031 183.461 174.023 184.367 172.625 184.375C171.195 184.367 170.188 183.461 170.188 182.188ZM171.562 191.109V189.203H174.094V191.109H171.562ZM175.422 191.25L176.062 192.188C177.289 191.664 178.141 190.68 178.578 189.547C179.008 190.695 179.844 191.68 181.125 192.188L181.766 191.25C180.07 190.625 179.188 189.086 179.203 187.625V186.438H177.984V187.625C177.977 189.031 177.094 190.555 175.422 191.25ZM185.453 186.719H184.234V192.078H193.625V186.719H192.391V188.344H185.453V186.719ZM182.625 185.734H195.281V184.719H182.625V185.734ZM183.344 182.75L183.812 183.734C185.953 183.414 188.078 182.328 188.961 180.766C189.844 182.32 191.961 183.414 194.109 183.734L194.562 182.75C192.117 182.438 189.586 180.898 189.594 179.188V178.531H188.328V179.188C188.328 180.953 185.82 182.414 183.344 182.75ZM185.453 191.094V189.312H192.391V191.094H185.453ZM207.906 178.375H206.688V192.266H207.906V178.375ZM197.359 188.688H198.484C200.711 188.688 202.906 188.516 205.375 188L205.203 186.953C202.875 187.445 200.688 187.609 198.562 187.625V179.75H197.359V188.688ZM221.031 178.375H219.812V192.297H221.031V184.906H223.359V183.875H221.031V178.375ZM210.891 188.812H211.984C214.625 188.812 216.445 188.734 218.625 188.344L218.469 187.281C216.398 187.664 214.625 187.773 212.109 187.781V180.75H217.375V179.734H210.891V188.812ZM225.578 191.094C226.133 191.086 226.586 190.633 226.578 190.078C226.586 189.531 226.133 189.078 225.578 189.078C225.031 189.078 224.562 189.531 224.578 190.078C224.562 190.633 225.031 191.086 225.578 191.094Z" fill="#757575"/>
<defs>
<filter id="filter0_d_372_6500" x="47.8101" y="38.2598" width="185.5" height="93.0996" filterUnits="userSpaceOnUse" color-interpolation-filters="sRGB">
<feFlood flood-opacity="0" result="BackgroundImageFix"/>
<feColorMatrix in="SourceAlpha" type="matrix" values="0 0 0 0 0 0 0 0 0 0 0 0 0 0 0 0 0 0 127 0" result="hardAlpha"/>
<feOffset dy="3"/>
<feGaussianBlur stdDeviation="3"/>
<feComposite in2="hardAlpha" operator="out"/>
<feColorMatrix type="matrix" values="0 0 0 0 0 0 0 0 0 0 0 0 0 0 0 0 0 0 0.16 0"/>
<feBlend mode="normal" in2="BackgroundImageFix" result="effect1_dropShadow_372_6500"/>
<feBlend mode="normal" in="SourceGraphic" in2="effect1_dropShadow_372_6500" result="shape"/>
</filter>
<filter id="filter1_d_372_6500" x="33.12" y="22.5508" width="217.07" height="109.489" filterUnits="userSpaceOnUse" color-interpolation-filters="sRGB">
<feFlood flood-opacity="0" result="BackgroundImageFix"/>
<feColorMatrix in="SourceAlpha" type="matrix" values="0 0 0 0 0 0 0 0 0 0 0 0 0 0 0 0 0 0 127 0" result="hardAlpha"/>
<feOffset dy="3"/>
<feGaussianBlur stdDeviation="3"/>
<feComposite in2="hardAlpha" operator="out"/>
<feColorMatrix type="matrix" values="0 0 0 0 0 0 0 0 0 0 0 0 0 0 0 0 0 0 0.16 0"/>
<feBlend mode="normal" in2="BackgroundImageFix" result="effect1_dropShadow_372_6500"/>
<feBlend mode="normal" in="SourceGraphic" in2="effect1_dropShadow_372_6500" result="shape"/>
</filter>
<filter id="filter2_d_372_6500" x="24.1873" y="7.27344" width="232.853" height="124.717" filterUnits="userSpaceOnUse" color-interpolation-filters="sRGB">
<feFlood flood-opacity="0" result="BackgroundImageFix"/>
<feColorMatrix in="SourceAlpha" type="matrix" values="0 0 0 0 0 0 0 0 0 0 0 0 0 0 0 0 0 0 127 0" result="hardAlpha"/>
<feOffset dy="3"/>
<feGaussianBlur stdDeviation="3"/>
<feComposite in2="hardAlpha" operator="out"/>
<feColorMatrix type="matrix" values="0 0 0 0 0 0 0 0 0 0 0 0 0 0 0 0 0 0 0.16 0"/>
<feBlend mode="normal" in2="BackgroundImageFix" result="effect1_dropShadow_372_6500"/>
<feBlend mode="normal" in="SourceGraphic" in2="effect1_dropShadow_372_6500" result="shape"/>
</filter>
<filter id="filter3_d_372_6500" x="2.5083" y="74.7227" width="92.7999" height="69.4531" filterUnits="userSpaceOnUse" color-interpolation-filters="sRGB">
<feFlood flood-opacity="0" result="BackgroundImageFix"/>
<feColorMatrix in="SourceAlpha" type="matrix" values="0 0 0 0 0 0 0 0 0 0 0 0 0 0 0 0 0 0 127 0" result="hardAlpha"/>
<feOffset/>
<feGaussianBlur stdDeviation="5"/>
<feComposite in2="hardAlpha" operator="out"/>
<feColorMatrix type="matrix" values="0 0 0 0 0 0 0 0 0 0 0 0 0 0 0 0 0 0 0.16 0"/>
<feBlend mode="normal" in2="BackgroundImageFix" result="effect1_dropShadow_372_6500"/>
<feBlend mode="normal" in="SourceGraphic" in2="effect1_dropShadow_372_6500" result="shape"/>
</filter>
<filter id="filter4_d_372_6500" x="190.884" y="74.9922" width="92.7352" height="69.4531" filterUnits="userSpaceOnUse" color-interpolation-filters="sRGB">
<feFlood flood-opacity="0" result="BackgroundImageFix"/>
<feColorMatrix in="SourceAlpha" type="matrix" values="0 0 0 0 0 0 0 0 0 0 0 0 0 0 0 0 0 0 127 0" result="hardAlpha"/>
<feOffset/>
<feGaussianBlur stdDeviation="5"/>
<feComposite in2="hardAlpha" operator="out"/>
<feColorMatrix type="matrix" values="0 0 0 0 0 0 0 0 0 0 0 0 0 0 0 0 0 0 0.16 0"/>
<feBlend mode="normal" in2="BackgroundImageFix" result="effect1_dropShadow_372_6500"/>
<feBlend mode="normal" in="SourceGraphic" in2="effect1_dropShadow_372_6500" result="shape"/>
</filter>
</defs>
</svg>
