<svg width="38" height="20" viewBox="0 0 38 20" fill="none" xmlns="http://www.w3.org/2000/svg">
<rect x="0.5" width="37" height="20" rx="2" fill="#F5A256"/>
<path d="M18.5078 10.8125H8.85156V11.8789H13.0234V15.0547H14.3125V11.8789H18.5078V10.8125ZM9.37891 9.13672L9.84766 10.168C11.6113 9.94531 12.9883 9.18945 13.6797 8.1582C14.3652 9.17773 15.7246 9.94531 17.4766 10.168L17.957 9.13672C15.8418 8.87891 14.459 7.7832 14.3359 6.73438H17.6055V5.70312H14.3125V4.46094H13.0234V5.70312H9.74219V6.73438H13.0117C12.8828 7.79492 11.4941 8.87891 9.37891 9.13672ZM27.5195 4.44922H26.2188V15.0195H27.5195V9.67578H29.0898V8.58594H27.5195V4.44922ZM19.1641 12.125L19.9023 13.1328C23.4238 11.3984 24.7129 8.66211 24.7188 5.55078H19.7383V6.62891H23.3945C23.1367 9.04297 21.7422 10.8359 19.1641 12.125Z" fill="white"/>
</svg>
