<svg width="14" height="17" viewBox="0 0 14 17" fill="none" xmlns="http://www.w3.org/2000/svg">
<path d="M5.91433 10.3413L7.86854 12.9855C7.5997 13.0497 7.31019 13.0819 7.01034 13.0819C4.6839 13.0712 3.16396 11.2727 3.16396 7.96474C3.16396 4.6461 4.6839 2.85831 7.01034 2.84761C9.3161 2.85831 10.8464 4.6461 10.836 7.96474C10.8464 9.67758 10.4328 10.9943 9.71935 11.8508L8.58198 10.3413H5.91433ZM0 7.96474C0 13.0069 3.0192 15.9295 7.01034 15.9295C7.94092 15.9295 8.83013 15.7689 9.63663 15.4584L10.836 17H13.7518L11.6219 14.2166C13.0901 12.8571 14 10.7374 14 7.96474C14 2.90113 10.9705 0 7.01034 0C3.0192 0 0 2.90113 0 7.96474Z" fill="#000"/>
<rect fill="#000" />
</svg>
