<svg width="38" height="20" viewBox="0 0 38 20" fill="none" xmlns="http://www.w3.org/2000/svg">
<rect x="0.5" width="37" height="20" rx="2" fill="#E57373"/>
<path d="M17.6875 4.44922H16.3867V9.91016H17.6875V4.44922ZM9.02734 8.60938L9.16797 9.64062C11.0195 9.64062 13.457 9.57617 15.5664 9.24219L15.5078 8.30469C15.0625 8.35742 14.5938 8.4043 14.1133 8.43945V6.13672H15.0625V5.12891H9.30859V6.13672H10.2344V8.59766C9.8125 8.60352 9.4082 8.60938 9.02734 8.60938ZM10.5859 11.375H16.3984V12.1367H10.6094V14.9492H18.0273V13.918H11.8984V13.0859H17.6875V10.3555H10.5859V11.375ZM11.4883 8.56836V6.13672H12.8711V8.51562C12.4082 8.53906 11.9453 8.55664 11.4883 8.56836ZM24.7422 5.32812V4.78906H23.3711V5.32812C23.3711 6.66992 21.8828 8.01172 19.6445 8.30469L20.1602 9.35938C21.9414 9.08984 23.3652 8.20508 24.0566 7.00977C24.748 8.20508 26.1777 9.08984 27.9766 9.35938L28.4922 8.30469C26.2305 8.01172 24.7363 6.6582 24.7422 5.32812ZM19.2227 11.3516H23.3828V15.043H24.6719V11.3516H28.8789V10.2734H19.2227V11.3516Z" fill="white"/>
</svg>
