<svg width="24" height="24" viewBox="0 0 24 24" fill="none" xmlns="http://www.w3.org/2000/svg">
<path d="M10.875 21.4334C10.875 21.7342 10.6108 21.968 10.3149 21.9137C8.29512 21.5433 6.60233 20.5712 5.2365 18.9974C3.7455 17.281 3 15.2656 3 12.9512C3 11.6992 3.24375 10.4991 3.73125 9.35106C4.07283 8.54716 4.51567 7.81535 5.05976 7.15562C5.44985 6.68263 6.15725 6.69839 6.58824 7.13444C7.0392 7.5907 7.00838 8.32553 6.61519 8.83243C6.28408 9.2593 6.01201 9.72166 5.799 10.2195C5.433 11.0732 5.25 11.9837 5.25 12.9512C5.25 14.6206 5.775 16.0953 6.825 17.3754C7.78604 18.5478 8.99839 19.3028 10.4621 19.6405C10.6992 19.6952 10.875 19.9014 10.875 20.1447V21.4334ZM13.6891 21.9084C13.392 21.9654 13.125 21.7311 13.125 21.4287V20.1391C13.125 19.8983 13.2973 19.6934 13.5314 19.6365C14.981 19.2839 16.1906 18.5257 17.1604 17.3618C18.2201 16.0908 18.75 14.6206 18.75 12.9512C18.75 11.0542 18.0938 9.44173 16.7812 8.11382C15.4688 6.78591 13.875 6.12195 12 6.12195H11.9156L12.3748 6.58654C12.8061 7.02291 12.8061 7.72506 12.3748 8.16143C11.9363 8.60507 11.2199 8.60507 10.7814 8.16143L7.93705 5.28364C7.77278 5.11745 7.77278 4.85003 7.93705 4.68384L10.7814 1.80605C11.2199 1.36241 11.9363 1.36241 12.3748 1.80605C12.8061 2.24242 12.8061 2.94457 12.3748 3.38094L11.9156 3.84553H12C14.5125 3.84553 16.6406 4.72764 18.3844 6.49187C20.1281 8.2561 21 10.4092 21 12.9512C21 15.2466 20.2549 17.2529 18.7646 18.9701C17.399 20.5422 15.7071 21.5216 13.6891 21.9084Z" fill="#424242"/>
</svg>
