<svg width="24" height="24" viewBox="0 0 24 24" fill="none" xmlns="http://www.w3.org/2000/svg">
<path fill-rule="evenodd" clip-rule="evenodd" d="M15.655 17.0019C14.1097 18.2515 12.1422 19 10 19C5.02944 19 1 14.9706 1 10C1 5.02944 5.02944 1 10 1C14.9706 1 19 5.02944 19 10C19 12.1424 18.2515 14.1099 17.0016 15.6553L22.7211 21.3748C23.0929 21.7466 23.0929 22.3495 22.7211 22.7213C22.3492 23.0932 21.7464 23.0932 21.3745 22.7213L15.655 17.0019ZM17.1 10C17.1 13.9212 13.9212 17.1 10 17.1C6.07878 17.1 2.9 13.9212 2.9 10C2.9 6.07878 6.07878 2.9 10 2.9C13.9212 2.9 17.1 6.07878 17.1 10Z" fill="#424242"/>
</svg>
