<svg width="24" height="24" viewBox="0 0 24 24" fill="none" xmlns="http://www.w3.org/2000/svg">
<path d="M10.147 22C9.64245 22 9.21693 21.6241 9.15466 21.1234L8.86567 18.8C8.65008 18.7167 8.4471 18.6167 8.25672 18.5C8.06567 18.3833 7.87894 18.2583 7.69652 18.125L5.55061 19.0311C5.08557 19.2275 4.54708 19.0465 4.2951 18.6091L2.43908 15.3872C2.18801 14.9514 2.29972 14.3969 2.69996 14.0923L4.56219 12.675C4.54561 12.5583 4.53731 12.4457 4.53731 12.337V11.662C4.53731 11.554 4.54561 11.4417 4.56219 11.325L2.69996 9.90772C2.29972 9.60311 2.18801 9.04863 2.43908 8.6128L4.2951 5.39092C4.54708 4.9535 5.08557 4.77248 5.55061 4.96885L7.69652 5.875C7.87894 5.74167 8.06965 5.61667 8.26866 5.5C8.46766 5.38333 8.66667 5.28333 8.86567 5.2L9.15466 2.87657C9.21693 2.37587 9.64245 2 10.147 2H13.853C14.3575 2 14.7831 2.37587 14.8453 2.87657L15.1343 5.2C15.3499 5.28333 15.5532 5.38333 15.7443 5.5C15.9347 5.61667 16.1211 5.74167 16.3035 5.875L18.4494 4.96885C18.9144 4.77248 19.4529 4.9535 19.7049 5.39092L21.5609 8.6128C21.812 9.04863 21.7003 9.60311 21.3 9.90772L19.4378 11.325C19.4544 11.4417 19.4627 11.554 19.4627 11.662V12.337C19.4627 12.4457 19.4461 12.5583 19.4129 12.675L21.2752 14.0923C21.6754 14.3969 21.7871 14.9514 21.536 15.3872L19.6814 18.6067C19.4288 19.0452 18.8886 19.2259 18.4231 19.0276L16.3035 18.125C16.1211 18.2583 15.9304 18.3833 15.7313 18.5C15.5323 18.6167 15.3333 18.7167 15.1343 18.8L14.8453 21.1234C14.7831 21.6241 14.3575 22 13.853 22H10.147ZM12.0498 15.5C13.0116 15.5 13.8325 15.1583 14.5124 14.475C15.1924 13.7917 15.5323 12.9667 15.5323 12C15.5323 11.0333 15.1924 10.2083 14.5124 9.525C13.8325 8.84167 13.0116 8.5 12.0498 8.5C11.0713 8.5 10.2461 8.84167 9.57413 9.525C8.90282 10.2083 8.56717 11.0333 8.56717 12C8.56717 12.9667 8.90282 13.7917 9.57413 14.475C10.2461 15.1583 11.0713 15.5 12.0498 15.5ZM12.0498 13.5C11.6352 13.5 11.2829 13.354 10.993 13.062C10.7025 12.7707 10.5572 12.4167 10.5572 12C10.5572 11.5833 10.7025 11.2293 10.993 10.938C11.2829 10.646 11.6352 10.5 12.0498 10.5C12.4643 10.5 12.8169 10.646 13.1075 10.938C13.3973 11.2293 13.5423 11.5833 13.5423 12C13.5423 12.4167 13.3973 12.7707 13.1075 13.062C12.8169 13.354 12.4643 13.5 12.0498 13.5ZM11.005 20H12.9702L13.2306 18.0184C13.2837 17.6144 13.58 17.2911 13.9598 17.1437C14.2351 17.0369 14.4982 16.9096 14.7493 16.762C14.9968 16.6165 15.2326 16.4538 15.4566 16.2738C15.773 16.0195 16.2001 15.9269 16.5749 16.0829L18.4179 16.85L19.3881 15.15L17.831 13.9672C17.4842 13.7039 17.3606 13.2468 17.4191 12.8153C17.4204 12.8059 17.4217 12.7965 17.4229 12.787C17.4561 12.529 17.4726 12.2667 17.4726 12C17.4726 11.7333 17.4561 11.4707 17.4229 11.212C17.4217 11.2029 17.4205 11.1937 17.4193 11.1846C17.3607 10.7532 17.4842 10.2961 17.831 10.0328L19.3881 8.85L18.4179 7.15L16.5935 7.92788C16.2096 8.09153 15.7701 7.99249 15.4482 7.72701C15.2267 7.54435 14.9937 7.38101 14.7493 7.237C14.5001 7.09087 14.2391 6.96473 13.9662 6.85859C13.5833 6.70969 13.2857 6.38192 13.2359 5.9741L12.995 4H11.0299L10.7694 5.98157C10.7163 6.38557 10.42 6.70891 10.0401 6.85622C9.76512 6.96285 9.50233 7.08978 9.25174 7.237C9.00371 7.38288 8.76759 7.54594 8.5434 7.72617C8.22698 7.98054 7.79991 8.07308 7.42509 7.91708L5.58209 7.15L4.61194 8.85L6.17415 10.0184C6.5188 10.2762 6.64622 10.7242 6.58407 11.15C6.58164 11.1667 6.57932 11.1833 6.57712 11.2C6.54395 11.45 6.52736 11.7167 6.52736 12C6.52736 12.2667 6.54395 12.525 6.57712 12.775C6.57957 12.7935 6.58216 12.812 6.58489 12.8305C6.64726 13.2536 6.52241 13.6988 6.18188 13.9575L4.61194 15.15L5.58209 16.85L7.40655 16.0721C7.79037 15.9085 8.2299 16.0076 8.552 16.2728C8.77363 16.4553 9.00688 16.6184 9.25174 16.762C9.50044 16.9085 9.76116 17.0349 10.0339 17.1412C10.4167 17.2904 10.7143 17.6181 10.7641 18.0259L11.005 20Z" fill="#424242"/>
</svg>
