<svg width="23" height="20" viewBox="0 0 23 20" fill="current" xmlns="http://www.w3.org/2000/svg">
<path fill-rule="evenodd" clip-rule="evenodd" d="M11.0574 1.87112C10.2456 1.86674 9.55542 1.35134 9.29585 0.632008C9.17502 0.297177 8.89725 0.00012207 8.54128 0.00012207C8.18532 0.00012207 7.88985 0.291665 7.96216 0.640208C8.05624 1.09372 8.24831 1.51164 8.51538 1.87113L8.10916 1.87113C7.2928 1.87113 6.59785 1.35442 6.33717 0.632039C6.21634 0.297209 5.93857 0.00014863 5.5826 0.00014863C5.22664 0.00014863 4.93117 0.291737 5.00349 0.640279C5.23285 1.74577 6.04443 2.63978 7.10549 2.99146C5.09243 4.09443 3.54381 5.93165 2.8244 8.13967C2.24962 8.24845 1.73568 8.52803 1.33872 8.92223C0.821699 9.43676 0.5 10.1497 0.5 10.9356C0.5 12.3244 1.5003 13.481 2.8244 13.7315C4.00954 17.3689 7.445 20 11.5 20C15.555 20 18.9905 17.3689 20.1756 13.7315C21.4997 13.481 22.5 12.3244 22.5 10.9356C22.5 10.1497 22.1788 9.43726 21.6618 8.92272C21.2648 8.52852 20.7504 8.24845 20.1756 8.13967C18.9905 4.50225 15.555 1.87112 11.5 1.87112L11.4984 1.87112L11.0574 1.87112ZM11.478 3.15264C7.87384 3.1625 4.84085 5.59421 3.94222 8.8978C3.86737 9.173 3.61727 9.36586 3.33213 9.37117C2.90992 9.37905 2.5291 9.55155 2.24993 9.82868C1.96446 10.1129 1.78906 10.5033 1.78906 10.9356C1.78906 11.7896 2.47714 12.4839 3.33221 12.5C3.61733 12.5053 3.86737 12.6982 3.94222 12.9733C4.84268 16.2836 7.88619 18.7185 11.5 18.7185C15.1138 18.7185 18.1573 16.2836 19.0578 12.9733C19.1326 12.6982 19.3827 12.5053 19.6678 12.5C20.5229 12.4839 21.2109 11.7896 21.2109 10.9356C21.2109 10.5033 21.0355 10.1129 20.75 9.82864C20.4709 9.55153 20.0901 9.37905 19.6679 9.37117C19.3827 9.36586 19.1326 9.173 19.0578 8.8978C18.4276 6.58112 16.7478 4.6932 14.5575 3.76857C14.7781 4.21671 14.9019 4.72051 14.9019 5.25306C14.9019 7.12086 13.3788 8.63497 11.5 8.63497C9.84157 8.63497 8.46034 7.45525 8.1591 5.89391C8.09166 5.54439 8.38667 5.25306 8.74264 5.25306C9.0986 5.25306 9.3773 5.5484 9.48529 5.88759C9.75587 6.73748 10.5556 7.35347 11.5 7.35347C12.6669 7.35347 13.6128 6.41309 13.6128 5.25306C13.6128 4.09303 12.6669 3.15264 11.5 3.15264H11.478ZM7.80164 10.362C7.5682 10.362 7.35716 10.4572 7.20566 10.6107C6.95562 10.8641 6.67823 11.1919 6.32227 11.1919C5.9663 11.1919 5.6679 10.8966 5.77535 10.5572C6.04636 9.70124 6.85107 9.08047 7.80164 9.08047C8.75218 9.08047 9.55687 9.70125 9.82788 10.5572C9.93533 10.8966 9.63693 11.1919 9.28097 11.1919C8.925 11.1919 8.64761 10.8641 8.39757 10.6107C8.24608 10.4572 8.03504 10.362 7.80164 10.362ZM15.1984 10.362C14.965 10.362 14.7539 10.4572 14.6024 10.6107C14.3524 10.8641 14.075 11.1919 13.719 11.1919C13.3631 11.1919 13.0647 10.8966 13.1721 10.5572C13.4431 9.70125 14.2478 9.08047 15.1984 9.08047C16.1489 9.08047 16.9536 9.70124 17.2247 10.5572C17.3321 10.8966 17.0337 11.1919 16.6777 11.1919C16.3218 11.1919 16.0444 10.8641 15.7943 10.6107C15.6428 10.4572 15.4318 10.362 15.1984 10.362ZM11.5 16.223C10.4098 16.223 9.43386 15.7412 8.77398 14.9824C8.5399 14.7132 8.64579 14.312 8.95348 14.1315C9.25893 13.9524 9.64707 14.0626 9.90403 14.3063C10.3196 14.7004 10.8816 14.9415 11.5 14.9415C12.1184 14.9415 12.6804 14.7004 13.096 14.3063C13.3529 14.0626 13.7411 13.9524 14.0465 14.1315C14.3542 14.312 14.4601 14.7132 14.226 14.9824C13.5661 15.7412 12.5902 16.223 11.5 16.223Z" fill="#BDBDBD"/>
</svg>
